<?xml version="1.0" encoding="UTF-8" standalone="no"?><svg xmlns="http://www.w3.org/2000/svg" xmlns:xlink="http://www.w3.org/1999/xlink" contentScriptType="application/ecmascript" contentStyleType="text/css" height="1473px" preserveAspectRatio="none" style="width:1253px;height:1473px;background:#FFFFFF;" version="1.1" viewBox="0 0 1253 1473" width="1253px" zoomAndPan="magnify"><defs><filter height="300%" id="fy0jswihv9mii" width="300%" x="-1" y="-1"><feGaussianBlur result="blurOut" stdDeviation="2.0"/><feColorMatrix in="blurOut" result="blurOut2" type="matrix" values="0 0 0 0 0 0 0 0 0 0 0 0 0 0 0 0 0 0 .4 0"/><feOffset dx="4.0" dy="4.0" in="blurOut2" result="blurOut3"/><feBlend in="SourceGraphic" in2="blurOut3" mode="normal"/></filter></defs><g><!--MD5=[b3f4058f8840ff4af2b18cbc61253b0d]
cluster com.groupfive.fitness--><polygon fill="#FFFFFF" filter="url(#fy0jswihv9mii)" points="16,6,176,6,183,29.6094,1236.5,29.6094,1236.5,1466,16,1466,16,6" style="stroke:#000000;stroke-width:1.5;"/><line style="stroke:#000000;stroke-width:1.5;" x1="16" x2="183" y1="29.6094" y2="29.6094"/><text fill="#000000" font-family="sans-serif" font-size="14" font-weight="bold" lengthAdjust="spacing" textLength="154" x="20" y="22.5332">com.groupfive.fitness</text><!--MD5=[697371511e1405ed60df0330cde6c276]
cluster Calender--><polygon fill="#FFFFFF" filter="url(#fy0jswihv9mii)" points="40,1135,110,1135,117,1158.6094,764,1158.6094,764,1303,40,1303,40,1135" style="stroke:#000000;stroke-width:1.5;"/><line style="stroke:#000000;stroke-width:1.5;" x1="40" x2="117" y1="1158.6094" y2="1158.6094"/><text fill="#000000" font-family="sans-serif" font-size="14" font-weight="bold" lengthAdjust="spacing" textLength="64" x="44" y="1151.5332">Calender</text><!--MD5=[71971f99a41bb66cf321ce46bb59f738]
cluster Repository--><polygon fill="#FFFFFF" filter="url(#fy0jswihv9mii)" points="64,1179,146,1179,153,1202.6094,740,1202.6094,740,1279,64,1279,64,1179" style="stroke:#000000;stroke-width:1.5;"/><line style="stroke:#000000;stroke-width:1.5;" x1="64" x2="153" y1="1202.6094" y2="1202.6094"/><text fill="#000000" font-family="sans-serif" font-size="14" font-weight="bold" lengthAdjust="spacing" textLength="76" x="68" y="1195.5332">Repository</text><!--MD5=[46880a98deb6967abc3c9d95b37f227a]
cluster Exercise--><polygon fill="#FFFFFF" filter="url(#fy0jswihv9mii)" points="471.5,50,538.5,50,545.5,73.6094,1212.5,73.6094,1212.5,1111,471.5,1111,471.5,50" style="stroke:#000000;stroke-width:1.5;"/><line style="stroke:#000000;stroke-width:1.5;" x1="471.5" x2="545.5" y1="73.6094" y2="73.6094"/><text fill="#000000" font-family="sans-serif" font-size="14" font-weight="bold" lengthAdjust="spacing" textLength="61" x="475.5" y="66.5332">Exercise</text><!--MD5=[477546b927786c05e31d9ac83a0737ee]
cluster Fragments--><polygon fill="#FFFFFF" filter="url(#fy0jswihv9mii)" points="495.5,233,576.5,233,583.5,256.6094,1003.5,256.6094,1003.5,945,495.5,945,495.5,233" style="stroke:#000000;stroke-width:1.5;"/><line style="stroke:#000000;stroke-width:1.5;" x1="495.5" x2="583.5" y1="256.6094" y2="256.6094"/><text fill="#000000" font-family="sans-serif" font-size="14" font-weight="bold" lengthAdjust="spacing" textLength="75" x="499.5" y="249.5332">Fragments</text><!--MD5=[7f21890a0c14acb8a81ada658e8ff09c]
cluster Calendar--><polygon fill="#FFFFFF" filter="url(#fy0jswihv9mii)" points="552.5,596,621.5,596,628.5,619.6094,972,619.6094,972,779,552.5,779,552.5,596" style="stroke:#000000;stroke-width:1.5;"/><line style="stroke:#000000;stroke-width:1.5;" x1="552.5" x2="628.5" y1="619.6094" y2="619.6094"/><text fill="#000000" font-family="sans-serif" font-size="14" font-weight="bold" lengthAdjust="spacing" textLength="63" x="556.5" y="612.5332">Calendar</text><!--MD5=[38207a05456982a8a5aa1a3c7e8f1112]
cluster Workoutday--><polygon fill="#FFFFFF" filter="url(#fy0jswihv9mii)" points="519.5,333,608.5,333,615.5,356.6094,979.5,356.6094,979.5,516,519.5,516,519.5,333" style="stroke:#000000;stroke-width:1.5;"/><line style="stroke:#000000;stroke-width:1.5;" x1="519.5" x2="615.5" y1="356.6094" y2="356.6094"/><text fill="#000000" font-family="sans-serif" font-size="14" font-weight="bold" lengthAdjust="spacing" textLength="83" x="523.5" y="349.5332">Workoutday</text><!--MD5=[5db00888549904919e3a09c35d77129e]
class MainActivity--><rect codeLine="5" fill="#FEFECE" filter="url(#fy0jswihv9mii)" height="48" id="MainActivity" style="stroke:#A80036;stroke-width:1.5;" width="93" x="118" y="1319"/><ellipse cx="133" cy="1335" fill="#ADD1B2" rx="11" ry="11" style="stroke:#A80036;stroke-width:1.0;"/><path d="M135.7656,1330.875 Q135.9219,1330.6563 136.1094,1330.5469 Q136.2969,1330.4375 136.5156,1330.4375 Q136.8906,1330.4375 137.125,1330.7031 Q137.3594,1330.9531 137.3594,1331.5625 L137.3594,1333.0156 Q137.3594,1333.625 137.125,1333.8906 Q136.8906,1334.1563 136.5156,1334.1563 Q136.1719,1334.1563 135.9688,1333.9531 Q135.7656,1333.7656 135.6563,1333.25 Q135.6094,1332.8906 135.4219,1332.7031 Q135.0938,1332.3281 134.4844,1332.1094 Q133.875,1331.8906 133.25,1331.8906 Q132.4844,1331.8906 131.8438,1332.2188 Q131.2188,1332.5469 130.7188,1333.2969 Q130.2344,1334.0469 130.2344,1335.0781 L130.2344,1336.1719 Q130.2344,1337.4063 131.125,1338.2344 Q132.0156,1339.0469 133.6094,1339.0469 Q134.5469,1339.0469 135.2031,1338.7969 Q135.5938,1338.6406 136.0156,1338.2031 Q136.2813,1337.9375 136.4219,1337.8594 Q136.5781,1337.7813 136.7813,1337.7813 Q137.1094,1337.7813 137.3594,1338.0469 Q137.625,1338.2969 137.625,1338.6406 Q137.625,1338.9844 137.2813,1339.3906 Q136.7813,1339.9688 135.9844,1340.2969 Q134.9063,1340.75 133.6094,1340.75 Q132.0938,1340.75 130.8906,1340.125 Q129.9063,1339.625 129.2188,1338.5625 Q128.5313,1337.4844 128.5313,1336.2031 L128.5313,1335.0469 Q128.5313,1333.7188 129.1406,1332.5781 Q129.7656,1331.4219 130.8594,1330.8125 Q131.9531,1330.1875 133.1875,1330.1875 Q133.9219,1330.1875 134.5625,1330.3594 Q135.2188,1330.5156 135.7656,1330.875 Z " fill="#000000"/><text fill="#000000" font-family="sans-serif" font-size="12" lengthAdjust="spacing" textLength="61" x="147" y="1339.9102">MainActivity</text><line style="stroke:#A80036;stroke-width:1.5;" x1="119" x2="210" y1="1351" y2="1351"/><line style="stroke:#A80036;stroke-width:1.5;" x1="119" x2="210" y1="1359" y2="1359"/><!--MD5=[e8d8823923596991b8cab132527541d3]
class MyApp--><rect codeLine="6" fill="#FEFECE" filter="url(#fy0jswihv9mii)" height="48" id="MyApp" style="stroke:#A80036;stroke-width:1.5;" width="67" x="351" y="1402"/><ellipse cx="366" cy="1418" fill="#ADD1B2" rx="11" ry="11" style="stroke:#A80036;stroke-width:1.0;"/><path d="M368.7656,1413.875 Q368.9219,1413.6563 369.1094,1413.5469 Q369.2969,1413.4375 369.5156,1413.4375 Q369.8906,1413.4375 370.125,1413.7031 Q370.3594,1413.9531 370.3594,1414.5625 L370.3594,1416.0156 Q370.3594,1416.625 370.125,1416.8906 Q369.8906,1417.1563 369.5156,1417.1563 Q369.1719,1417.1563 368.9688,1416.9531 Q368.7656,1416.7656 368.6563,1416.25 Q368.6094,1415.8906 368.4219,1415.7031 Q368.0938,1415.3281 367.4844,1415.1094 Q366.875,1414.8906 366.25,1414.8906 Q365.4844,1414.8906 364.8438,1415.2188 Q364.2188,1415.5469 363.7188,1416.2969 Q363.2344,1417.0469 363.2344,1418.0781 L363.2344,1419.1719 Q363.2344,1420.4063 364.125,1421.2344 Q365.0156,1422.0469 366.6094,1422.0469 Q367.5469,1422.0469 368.2031,1421.7969 Q368.5938,1421.6406 369.0156,1421.2031 Q369.2813,1420.9375 369.4219,1420.8594 Q369.5781,1420.7813 369.7813,1420.7813 Q370.1094,1420.7813 370.3594,1421.0469 Q370.625,1421.2969 370.625,1421.6406 Q370.625,1421.9844 370.2813,1422.3906 Q369.7813,1422.9688 368.9844,1423.2969 Q367.9063,1423.75 366.6094,1423.75 Q365.0938,1423.75 363.8906,1423.125 Q362.9063,1422.625 362.2188,1421.5625 Q361.5313,1420.4844 361.5313,1419.2031 L361.5313,1418.0469 Q361.5313,1416.7188 362.1406,1415.5781 Q362.7656,1414.4219 363.8594,1413.8125 Q364.9531,1413.1875 366.1875,1413.1875 Q366.9219,1413.1875 367.5625,1413.3594 Q368.2188,1413.5156 368.7656,1413.875 Z " fill="#000000"/><text fill="#000000" font-family="sans-serif" font-size="12" lengthAdjust="spacing" textLength="35" x="380" y="1422.9102">MyApp</text><line style="stroke:#A80036;stroke-width:1.5;" x1="352" x2="417" y1="1434" y2="1434"/><line style="stroke:#A80036;stroke-width:1.5;" x1="352" x2="417" y1="1442" y2="1442"/><!--MD5=[480fa1979b9d69ba74e1266be54b9df0]
class TrainingNotificationService--><rect codeLine="7" fill="#FEFECE" filter="url(#fy0jswihv9mii)" height="48" id="TrainingNotificationService" style="stroke:#A80036;stroke-width:1.5;" width="178" x="75.5" y="1402"/><ellipse cx="90.5" cy="1418" fill="#ADD1B2" rx="11" ry="11" style="stroke:#A80036;stroke-width:1.0;"/><path d="M93.2656,1413.875 Q93.4219,1413.6563 93.6094,1413.5469 Q93.7969,1413.4375 94.0156,1413.4375 Q94.3906,1413.4375 94.625,1413.7031 Q94.8594,1413.9531 94.8594,1414.5625 L94.8594,1416.0156 Q94.8594,1416.625 94.625,1416.8906 Q94.3906,1417.1563 94.0156,1417.1563 Q93.6719,1417.1563 93.4688,1416.9531 Q93.2656,1416.7656 93.1563,1416.25 Q93.1094,1415.8906 92.9219,1415.7031 Q92.5938,1415.3281 91.9844,1415.1094 Q91.375,1414.8906 90.75,1414.8906 Q89.9844,1414.8906 89.3438,1415.2188 Q88.7188,1415.5469 88.2188,1416.2969 Q87.7344,1417.0469 87.7344,1418.0781 L87.7344,1419.1719 Q87.7344,1420.4063 88.625,1421.2344 Q89.5156,1422.0469 91.1094,1422.0469 Q92.0469,1422.0469 92.7031,1421.7969 Q93.0938,1421.6406 93.5156,1421.2031 Q93.7813,1420.9375 93.9219,1420.8594 Q94.0781,1420.7813 94.2813,1420.7813 Q94.6094,1420.7813 94.8594,1421.0469 Q95.125,1421.2969 95.125,1421.6406 Q95.125,1421.9844 94.7813,1422.3906 Q94.2813,1422.9688 93.4844,1423.2969 Q92.4063,1423.75 91.1094,1423.75 Q89.5938,1423.75 88.3906,1423.125 Q87.4063,1422.625 86.7188,1421.5625 Q86.0313,1420.4844 86.0313,1419.2031 L86.0313,1418.0469 Q86.0313,1416.7188 86.6406,1415.5781 Q87.2656,1414.4219 88.3594,1413.8125 Q89.4531,1413.1875 90.6875,1413.1875 Q91.4219,1413.1875 92.0625,1413.3594 Q92.7188,1413.5156 93.2656,1413.875 Z " fill="#000000"/><text fill="#000000" font-family="sans-serif" font-size="12" lengthAdjust="spacing" textLength="146" x="104.5" y="1422.9102">TrainingNotificationService</text><line style="stroke:#A80036;stroke-width:1.5;" x1="76.5" x2="252.5" y1="1434" y2="1434"/><line style="stroke:#A80036;stroke-width:1.5;" x1="76.5" x2="252.5" y1="1442" y2="1442"/><!--MD5=[98cc2565dc8acf0d966f83cd190a2822]
class CalenderRepository--><rect codeLine="11" fill="#FEFECE" filter="url(#fy0jswihv9mii)" height="48" id="CalenderRepository" style="stroke:#A80036;stroke-width:1.5;" width="142" x="313.5" y="1215"/><ellipse cx="328.5" cy="1231" fill="#B4A7E5" rx="11" ry="11" style="stroke:#A80036;stroke-width:1.0;"/><path d="M329.4531,1227.6406 L329.4531,1234.2969 L331.1719,1234.2969 Q331.7813,1234.2969 332.0469,1234.5313 Q332.3125,1234.7656 332.3125,1235.1563 Q332.3125,1235.5313 332.0469,1235.7656 Q331.7813,1236 331.1719,1236 L326.0313,1236 Q325.4219,1236 325.1563,1235.7656 Q324.8906,1235.5313 324.8906,1235.1406 Q324.8906,1234.7656 325.1563,1234.5313 Q325.4219,1234.2969 326.0313,1234.2969 L327.75,1234.2969 L327.75,1227.6406 L326.0313,1227.6406 Q325.4219,1227.6406 325.1563,1227.4063 Q324.8906,1227.1719 324.8906,1226.7813 Q324.8906,1226.4063 325.1563,1226.1719 Q325.4219,1225.9375 326.0313,1225.9375 L331.1719,1225.9375 Q331.7813,1225.9375 332.0469,1226.1719 Q332.3125,1226.4063 332.3125,1226.7813 Q332.3125,1227.1719 332.0469,1227.4063 Q331.7813,1227.6406 331.1719,1227.6406 L329.4531,1227.6406 Z " fill="#000000"/><text fill="#000000" font-family="sans-serif" font-size="12" font-style="italic" lengthAdjust="spacing" textLength="110" x="342.5" y="1235.9102">CalenderRepository</text><line style="stroke:#A80036;stroke-width:1.5;" x1="314.5" x2="454.5" y1="1247" y2="1247"/><line style="stroke:#A80036;stroke-width:1.5;" x1="314.5" x2="454.5" y1="1255" y2="1255"/><!--MD5=[21e8693d02c582f21e47990c99098fa9]
class PlannedWorkoutSession--><rect codeLine="12" fill="#FEFECE" filter="url(#fy0jswihv9mii)" height="48" id="PlannedWorkoutSession" style="stroke:#A80036;stroke-width:1.5;" width="169" x="80" y="1215"/><ellipse cx="95" cy="1231" fill="#ADD1B2" rx="11" ry="11" style="stroke:#A80036;stroke-width:1.0;"/><path d="M97.7656,1226.875 Q97.9219,1226.6563 98.1094,1226.5469 Q98.2969,1226.4375 98.5156,1226.4375 Q98.8906,1226.4375 99.125,1226.7031 Q99.3594,1226.9531 99.3594,1227.5625 L99.3594,1229.0156 Q99.3594,1229.625 99.125,1229.8906 Q98.8906,1230.1563 98.5156,1230.1563 Q98.1719,1230.1563 97.9688,1229.9531 Q97.7656,1229.7656 97.6563,1229.25 Q97.6094,1228.8906 97.4219,1228.7031 Q97.0938,1228.3281 96.4844,1228.1094 Q95.875,1227.8906 95.25,1227.8906 Q94.4844,1227.8906 93.8438,1228.2188 Q93.2188,1228.5469 92.7188,1229.2969 Q92.2344,1230.0469 92.2344,1231.0781 L92.2344,1232.1719 Q92.2344,1233.4063 93.125,1234.2344 Q94.0156,1235.0469 95.6094,1235.0469 Q96.5469,1235.0469 97.2031,1234.7969 Q97.5938,1234.6406 98.0156,1234.2031 Q98.2813,1233.9375 98.4219,1233.8594 Q98.5781,1233.7813 98.7813,1233.7813 Q99.1094,1233.7813 99.3594,1234.0469 Q99.625,1234.2969 99.625,1234.6406 Q99.625,1234.9844 99.2813,1235.3906 Q98.7813,1235.9688 97.9844,1236.2969 Q96.9063,1236.75 95.6094,1236.75 Q94.0938,1236.75 92.8906,1236.125 Q91.9063,1235.625 91.2188,1234.5625 Q90.5313,1233.4844 90.5313,1232.2031 L90.5313,1231.0469 Q90.5313,1229.7188 91.1406,1228.5781 Q91.7656,1227.4219 92.8594,1226.8125 Q93.9531,1226.1875 95.1875,1226.1875 Q95.9219,1226.1875 96.5625,1226.3594 Q97.2188,1226.5156 97.7656,1226.875 Z " fill="#000000"/><text fill="#000000" font-family="sans-serif" font-size="12" lengthAdjust="spacing" textLength="137" x="109" y="1235.9102">PlannedWorkoutSession</text><line style="stroke:#A80036;stroke-width:1.5;" x1="81" x2="248" y1="1247" y2="1247"/><line style="stroke:#A80036;stroke-width:1.5;" x1="81" x2="248" y1="1255" y2="1255"/><!--MD5=[62b95bffe2115a7914ec24f8fce473f1]
class TestCalenderRepository--><rect codeLine="13" fill="#FEFECE" filter="url(#fy0jswihv9mii)" height="48" id="TestCalenderRepository" style="stroke:#A80036;stroke-width:1.5;" width="166" x="558" y="1215"/><ellipse cx="573" cy="1231" fill="#ADD1B2" rx="11" ry="11" style="stroke:#A80036;stroke-width:1.0;"/><path d="M575.7656,1226.875 Q575.9219,1226.6563 576.1094,1226.5469 Q576.2969,1226.4375 576.5156,1226.4375 Q576.8906,1226.4375 577.125,1226.7031 Q577.3594,1226.9531 577.3594,1227.5625 L577.3594,1229.0156 Q577.3594,1229.625 577.125,1229.8906 Q576.8906,1230.1563 576.5156,1230.1563 Q576.1719,1230.1563 575.9688,1229.9531 Q575.7656,1229.7656 575.6563,1229.25 Q575.6094,1228.8906 575.4219,1228.7031 Q575.0938,1228.3281 574.4844,1228.1094 Q573.875,1227.8906 573.25,1227.8906 Q572.4844,1227.8906 571.8438,1228.2188 Q571.2188,1228.5469 570.7188,1229.2969 Q570.2344,1230.0469 570.2344,1231.0781 L570.2344,1232.1719 Q570.2344,1233.4063 571.125,1234.2344 Q572.0156,1235.0469 573.6094,1235.0469 Q574.5469,1235.0469 575.2031,1234.7969 Q575.5938,1234.6406 576.0156,1234.2031 Q576.2813,1233.9375 576.4219,1233.8594 Q576.5781,1233.7813 576.7813,1233.7813 Q577.1094,1233.7813 577.3594,1234.0469 Q577.625,1234.2969 577.625,1234.6406 Q577.625,1234.9844 577.2813,1235.3906 Q576.7813,1235.9688 575.9844,1236.2969 Q574.9063,1236.75 573.6094,1236.75 Q572.0938,1236.75 570.8906,1236.125 Q569.9063,1235.625 569.2188,1234.5625 Q568.5313,1233.4844 568.5313,1232.2031 L568.5313,1231.0469 Q568.5313,1229.7188 569.1406,1228.5781 Q569.7656,1227.4219 570.8594,1226.8125 Q571.9531,1226.1875 573.1875,1226.1875 Q573.9219,1226.1875 574.5625,1226.3594 Q575.2188,1226.5156 575.7656,1226.875 Z " fill="#000000"/><text fill="#000000" font-family="sans-serif" font-size="12" lengthAdjust="spacing" textLength="134" x="587" y="1235.9102">TestCalenderRepository</text><line style="stroke:#A80036;stroke-width:1.5;" x1="559" x2="723" y1="1247" y2="1247"/><line style="stroke:#A80036;stroke-width:1.5;" x1="559" x2="723" y1="1255" y2="1255"/><!--MD5=[997fadcf0f1516d354f9349bf13476a6]
class ExerciseAngleConstraint--><rect codeLine="18" fill="#FEFECE" filter="url(#fy0jswihv9mii)" height="48" id="ExerciseAngleConstraint" style="stroke:#A80036;stroke-width:1.5;" width="167" x="1029.5" y="86"/><ellipse cx="1044.5" cy="102" fill="#ADD1B2" rx="11" ry="11" style="stroke:#A80036;stroke-width:1.0;"/><path d="M1047.2656,97.875 Q1047.4219,97.6563 1047.6094,97.5469 Q1047.7969,97.4375 1048.0156,97.4375 Q1048.3906,97.4375 1048.625,97.7031 Q1048.8594,97.9531 1048.8594,98.5625 L1048.8594,100.0156 Q1048.8594,100.625 1048.625,100.8906 Q1048.3906,101.1563 1048.0156,101.1563 Q1047.6719,101.1563 1047.4688,100.9531 Q1047.2656,100.7656 1047.1563,100.25 Q1047.1094,99.8906 1046.9219,99.7031 Q1046.5938,99.3281 1045.9844,99.1094 Q1045.375,98.8906 1044.75,98.8906 Q1043.9844,98.8906 1043.3438,99.2188 Q1042.7188,99.5469 1042.2188,100.2969 Q1041.7344,101.0469 1041.7344,102.0781 L1041.7344,103.1719 Q1041.7344,104.4063 1042.625,105.2344 Q1043.5156,106.0469 1045.1094,106.0469 Q1046.0469,106.0469 1046.7031,105.7969 Q1047.0938,105.6406 1047.5156,105.2031 Q1047.7813,104.9375 1047.9219,104.8594 Q1048.0781,104.7813 1048.2813,104.7813 Q1048.6094,104.7813 1048.8594,105.0469 Q1049.125,105.2969 1049.125,105.6406 Q1049.125,105.9844 1048.7813,106.3906 Q1048.2813,106.9688 1047.4844,107.2969 Q1046.4063,107.75 1045.1094,107.75 Q1043.5938,107.75 1042.3906,107.125 Q1041.4063,106.625 1040.7188,105.5625 Q1040.0313,104.4844 1040.0313,103.2031 L1040.0313,102.0469 Q1040.0313,100.7188 1040.6406,99.5781 Q1041.2656,98.4219 1042.3594,97.8125 Q1043.4531,97.1875 1044.6875,97.1875 Q1045.4219,97.1875 1046.0625,97.3594 Q1046.7188,97.5156 1047.2656,97.875 Z " fill="#000000"/><text fill="#000000" font-family="sans-serif" font-size="12" lengthAdjust="spacing" textLength="135" x="1058.5" y="106.9102">ExerciseAngleConstraint</text><line style="stroke:#A80036;stroke-width:1.5;" x1="1030.5" x2="1195.5" y1="118" y2="118"/><line style="stroke:#A80036;stroke-width:1.5;" x1="1030.5" x2="1195.5" y1="126" y2="126"/><!--MD5=[1b8636a4639b54d98a55f7f36a2409b9]
class ExerciseDetector--><rect codeLine="19" fill="#FEFECE" filter="url(#fy0jswihv9mii)" height="48" id="ExerciseDetector" style="stroke:#A80036;stroke-width:1.5;" width="125" x="825.5" y="169"/><ellipse cx="840.5" cy="185" fill="#B4A7E5" rx="11" ry="11" style="stroke:#A80036;stroke-width:1.0;"/><path d="M841.4531,181.6406 L841.4531,188.2969 L843.1719,188.2969 Q843.7813,188.2969 844.0469,188.5313 Q844.3125,188.7656 844.3125,189.1563 Q844.3125,189.5313 844.0469,189.7656 Q843.7813,190 843.1719,190 L838.0313,190 Q837.4219,190 837.1563,189.7656 Q836.8906,189.5313 836.8906,189.1406 Q836.8906,188.7656 837.1563,188.5313 Q837.4219,188.2969 838.0313,188.2969 L839.75,188.2969 L839.75,181.6406 L838.0313,181.6406 Q837.4219,181.6406 837.1563,181.4063 Q836.8906,181.1719 836.8906,180.7813 Q836.8906,180.4063 837.1563,180.1719 Q837.4219,179.9375 838.0313,179.9375 L843.1719,179.9375 Q843.7813,179.9375 844.0469,180.1719 Q844.3125,180.4063 844.3125,180.7813 Q844.3125,181.1719 844.0469,181.4063 Q843.7813,181.6406 843.1719,181.6406 L841.4531,181.6406 Z " fill="#000000"/><text fill="#000000" font-family="sans-serif" font-size="12" font-style="italic" lengthAdjust="spacing" textLength="93" x="854.5" y="189.9102">ExerciseDetector</text><line style="stroke:#A80036;stroke-width:1.5;" x1="826.5" x2="949.5" y1="201" y2="201"/><line style="stroke:#A80036;stroke-width:1.5;" x1="826.5" x2="949.5" y1="209" y2="209"/><!--MD5=[0198e2688a4a486d082f1574ee5f48ce]
class ExercisePoseConstraint--><rect codeLine="20" fill="#FEFECE" filter="url(#fy0jswihv9mii)" height="48" id="ExercisePoseConstraint" style="stroke:#A80036;stroke-width:1.5;" width="163" x="806.5" y="86"/><ellipse cx="821.5" cy="102" fill="#B4A7E5" rx="11" ry="11" style="stroke:#A80036;stroke-width:1.0;"/><path d="M822.4531,98.6406 L822.4531,105.2969 L824.1719,105.2969 Q824.7813,105.2969 825.0469,105.5313 Q825.3125,105.7656 825.3125,106.1563 Q825.3125,106.5313 825.0469,106.7656 Q824.7813,107 824.1719,107 L819.0313,107 Q818.4219,107 818.1563,106.7656 Q817.8906,106.5313 817.8906,106.1406 Q817.8906,105.7656 818.1563,105.5313 Q818.4219,105.2969 819.0313,105.2969 L820.75,105.2969 L820.75,98.6406 L819.0313,98.6406 Q818.4219,98.6406 818.1563,98.4063 Q817.8906,98.1719 817.8906,97.7813 Q817.8906,97.4063 818.1563,97.1719 Q818.4219,96.9375 819.0313,96.9375 L824.1719,96.9375 Q824.7813,96.9375 825.0469,97.1719 Q825.3125,97.4063 825.3125,97.7813 Q825.3125,98.1719 825.0469,98.4063 Q824.7813,98.6406 824.1719,98.6406 L822.4531,98.6406 Z " fill="#000000"/><text fill="#000000" font-family="sans-serif" font-size="12" font-style="italic" lengthAdjust="spacing" textLength="131" x="835.5" y="106.9102">ExercisePoseConstraint</text><line style="stroke:#A80036;stroke-width:1.5;" x1="807.5" x2="968.5" y1="118" y2="118"/><line style="stroke:#A80036;stroke-width:1.5;" x1="807.5" x2="968.5" y1="126" y2="126"/><!--MD5=[74c4f2fc6ace641bc187b445bd629313]
class ExercisePoseConstraints--><rect codeLine="21" fill="#FEFECE" filter="url(#fy0jswihv9mii)" height="48" id="ExercisePoseConstraints" style="stroke:#A80036;stroke-width:1.5;" width="172" x="555" y="86"/><ellipse cx="570" cy="102" fill="#ADD1B2" rx="11" ry="11" style="stroke:#A80036;stroke-width:1.0;"/><path d="M572.7656,97.875 Q572.9219,97.6563 573.1094,97.5469 Q573.2969,97.4375 573.5156,97.4375 Q573.8906,97.4375 574.125,97.7031 Q574.3594,97.9531 574.3594,98.5625 L574.3594,100.0156 Q574.3594,100.625 574.125,100.8906 Q573.8906,101.1563 573.5156,101.1563 Q573.1719,101.1563 572.9688,100.9531 Q572.7656,100.7656 572.6563,100.25 Q572.6094,99.8906 572.4219,99.7031 Q572.0938,99.3281 571.4844,99.1094 Q570.875,98.8906 570.25,98.8906 Q569.4844,98.8906 568.8438,99.2188 Q568.2188,99.5469 567.7188,100.2969 Q567.2344,101.0469 567.2344,102.0781 L567.2344,103.1719 Q567.2344,104.4063 568.125,105.2344 Q569.0156,106.0469 570.6094,106.0469 Q571.5469,106.0469 572.2031,105.7969 Q572.5938,105.6406 573.0156,105.2031 Q573.2813,104.9375 573.4219,104.8594 Q573.5781,104.7813 573.7813,104.7813 Q574.1094,104.7813 574.3594,105.0469 Q574.625,105.2969 574.625,105.6406 Q574.625,105.9844 574.2813,106.3906 Q573.7813,106.9688 572.9844,107.2969 Q571.9063,107.75 570.6094,107.75 Q569.0938,107.75 567.8906,107.125 Q566.9063,106.625 566.2188,105.5625 Q565.5313,104.4844 565.5313,103.2031 L565.5313,102.0469 Q565.5313,100.7188 566.1406,99.5781 Q566.7656,98.4219 567.8594,97.8125 Q568.9531,97.1875 570.1875,97.1875 Q570.9219,97.1875 571.5625,97.3594 Q572.2188,97.5156 572.7656,97.875 Z " fill="#000000"/><text fill="#000000" font-family="sans-serif" font-size="12" lengthAdjust="spacing" textLength="140" x="584" y="106.9102">ExercisePoseConstraints</text><line style="stroke:#A80036;stroke-width:1.5;" x1="556" x2="726" y1="118" y2="118"/><line style="stroke:#A80036;stroke-width:1.5;" x1="556" x2="726" y1="126" y2="126"/><!--MD5=[ca7fae9f1248dabd899b9cfc84afabfd]
class ExerciseUtils--><rect codeLine="22" fill="#FEFECE" filter="url(#fy0jswihv9mii)" height="48" id="ExerciseUtils" style="stroke:#A80036;stroke-width:1.5;" width="104" x="589" y="964"/><ellipse cx="604" cy="980" fill="#ADD1B2" rx="11" ry="11" style="stroke:#A80036;stroke-width:1.0;"/><path d="M606.7656,975.875 Q606.9219,975.6563 607.1094,975.5469 Q607.2969,975.4375 607.5156,975.4375 Q607.8906,975.4375 608.125,975.7031 Q608.3594,975.9531 608.3594,976.5625 L608.3594,978.0156 Q608.3594,978.625 608.125,978.8906 Q607.8906,979.1563 607.5156,979.1563 Q607.1719,979.1563 606.9688,978.9531 Q606.7656,978.7656 606.6563,978.25 Q606.6094,977.8906 606.4219,977.7031 Q606.0938,977.3281 605.4844,977.1094 Q604.875,976.8906 604.25,976.8906 Q603.4844,976.8906 602.8438,977.2188 Q602.2188,977.5469 601.7188,978.2969 Q601.2344,979.0469 601.2344,980.0781 L601.2344,981.1719 Q601.2344,982.4063 602.125,983.2344 Q603.0156,984.0469 604.6094,984.0469 Q605.5469,984.0469 606.2031,983.7969 Q606.5938,983.6406 607.0156,983.2031 Q607.2813,982.9375 607.4219,982.8594 Q607.5781,982.7813 607.7813,982.7813 Q608.1094,982.7813 608.3594,983.0469 Q608.625,983.2969 608.625,983.6406 Q608.625,983.9844 608.2813,984.3906 Q607.7813,984.9688 606.9844,985.2969 Q605.9063,985.75 604.6094,985.75 Q603.0938,985.75 601.8906,985.125 Q600.9063,984.625 600.2188,983.5625 Q599.5313,982.4844 599.5313,981.2031 L599.5313,980.0469 Q599.5313,978.7188 600.1406,977.5781 Q600.7656,976.4219 601.8594,975.8125 Q602.9531,975.1875 604.1875,975.1875 Q604.9219,975.1875 605.5625,975.3594 Q606.2188,975.5156 606.7656,975.875 Z " fill="#000000"/><text fill="#000000" font-family="sans-serif" font-size="12" lengthAdjust="spacing" textLength="72" x="618" y="984.9102">ExerciseUtils</text><line style="stroke:#A80036;stroke-width:1.5;" x1="590" x2="692" y1="996" y2="996"/><line style="stroke:#A80036;stroke-width:1.5;" x1="590" x2="692" y1="1004" y2="1004"/><!--MD5=[25ce0cc84f9df5faedf184ef26e4ea5e]
class SquatExerciseDetector--><rect codeLine="23" fill="#FEFECE" filter="url(#fy0jswihv9mii)" height="48" id="SquatExerciseDetector" style="stroke:#A80036;stroke-width:1.5;" width="157" x="1034.5" y="169"/><ellipse cx="1049.5" cy="185" fill="#ADD1B2" rx="11" ry="11" style="stroke:#A80036;stroke-width:1.0;"/><path d="M1052.2656,180.875 Q1052.4219,180.6563 1052.6094,180.5469 Q1052.7969,180.4375 1053.0156,180.4375 Q1053.3906,180.4375 1053.625,180.7031 Q1053.8594,180.9531 1053.8594,181.5625 L1053.8594,183.0156 Q1053.8594,183.625 1053.625,183.8906 Q1053.3906,184.1563 1053.0156,184.1563 Q1052.6719,184.1563 1052.4688,183.9531 Q1052.2656,183.7656 1052.1563,183.25 Q1052.1094,182.8906 1051.9219,182.7031 Q1051.5938,182.3281 1050.9844,182.1094 Q1050.375,181.8906 1049.75,181.8906 Q1048.9844,181.8906 1048.3438,182.2188 Q1047.7188,182.5469 1047.2188,183.2969 Q1046.7344,184.0469 1046.7344,185.0781 L1046.7344,186.1719 Q1046.7344,187.4063 1047.625,188.2344 Q1048.5156,189.0469 1050.1094,189.0469 Q1051.0469,189.0469 1051.7031,188.7969 Q1052.0938,188.6406 1052.5156,188.2031 Q1052.7813,187.9375 1052.9219,187.8594 Q1053.0781,187.7813 1053.2813,187.7813 Q1053.6094,187.7813 1053.8594,188.0469 Q1054.125,188.2969 1054.125,188.6406 Q1054.125,188.9844 1053.7813,189.3906 Q1053.2813,189.9688 1052.4844,190.2969 Q1051.4063,190.75 1050.1094,190.75 Q1048.5938,190.75 1047.3906,190.125 Q1046.4063,189.625 1045.7188,188.5625 Q1045.0313,187.4844 1045.0313,186.2031 L1045.0313,185.0469 Q1045.0313,183.7188 1045.6406,182.5781 Q1046.2656,181.4219 1047.3594,180.8125 Q1048.4531,180.1875 1049.6875,180.1875 Q1050.4219,180.1875 1051.0625,180.3594 Q1051.7188,180.5156 1052.2656,180.875 Z " fill="#000000"/><text fill="#000000" font-family="sans-serif" font-size="12" lengthAdjust="spacing" textLength="125" x="1063.5" y="189.9102">SquatExerciseDetector</text><line style="stroke:#A80036;stroke-width:1.5;" x1="1035.5" x2="1190.5" y1="201" y2="201"/><line style="stroke:#A80036;stroke-width:1.5;" x1="1035.5" x2="1190.5" y1="209" y2="209"/><!--MD5=[74272f074246a40b8f4f842efb2b80c1]
class WorkoutType--><rect codeLine="24" fill="#FEFECE" filter="url(#fy0jswihv9mii)" height="48" id="WorkoutType" style="stroke:#A80036;stroke-width:1.5;" width="103" x="589.5" y="1047"/><ellipse cx="604.5" cy="1063" fill="#EB937F" rx="11" ry="11" style="stroke:#A80036;stroke-width:1.0;"/><path d="M603.3594,1063.7969 L603.3594,1066.2969 L607.6875,1066.2969 L607.6875,1065.375 Q607.6875,1064.7656 607.9219,1064.5 Q608.1719,1064.2344 608.5469,1064.2344 Q608.9219,1064.2344 609.1563,1064.5 Q609.3906,1064.7656 609.3906,1065.375 L609.3906,1068 L601.3906,1068 Q600.7656,1068 600.5,1067.7656 Q600.25,1067.5313 600.25,1067.1406 Q600.25,1066.7656 600.5156,1066.5313 Q600.7813,1066.2969 601.3906,1066.2969 L601.6563,1066.2969 L601.6563,1059.6406 L601.3906,1059.6406 Q600.7656,1059.6406 600.5,1059.4063 Q600.25,1059.1719 600.25,1058.7813 Q600.25,1058.4063 600.5,1058.1719 Q600.7656,1057.9375 601.3906,1057.9375 L609.0156,1057.9375 L609.0156,1060.5313 Q609.0156,1061.1406 608.7813,1061.4063 Q608.5625,1061.6563 608.1719,1061.6563 Q607.7969,1061.6563 607.5625,1061.4063 Q607.3281,1061.1406 607.3281,1060.5313 L607.3281,1059.6406 L603.3594,1059.6406 L603.3594,1062.0938 L604.8438,1062.0938 Q604.8438,1061.4375 604.9688,1061.25 Q605.2344,1060.8438 605.7031,1060.8438 Q606.0781,1060.8438 606.3125,1061.1094 Q606.5469,1061.3594 606.5469,1061.9688 L606.5469,1063.9375 Q606.5469,1064.4844 606.4219,1064.6719 Q606.1563,1065.0625 605.7031,1065.0625 Q605.2344,1065.0625 604.9688,1064.6563 Q604.8438,1064.4688 604.8438,1063.7969 L603.3594,1063.7969 Z " fill="#000000"/><text fill="#000000" font-family="sans-serif" font-size="12" lengthAdjust="spacing" textLength="71" x="618.5" y="1067.9102">WorkoutType</text><line style="stroke:#A80036;stroke-width:1.5;" x1="590.5" x2="691.5" y1="1079" y2="1079"/><line style="stroke:#A80036;stroke-width:1.5;" x1="590.5" x2="691.5" y1="1087" y2="1087"/><!--MD5=[ab03260e0743469785225c40f3c615fa]
class ExerciseCameraFragment--><rect codeLine="32" fill="#FEFECE" filter="url(#fy0jswihv9mii)" height="48" id="ExerciseCameraFragment" style="stroke:#A80036;stroke-width:1.5;" width="177" x="552.5" y="269"/><ellipse cx="567.5" cy="285" fill="#ADD1B2" rx="11" ry="11" style="stroke:#A80036;stroke-width:1.0;"/><path d="M570.2656,280.875 Q570.4219,280.6563 570.6094,280.5469 Q570.7969,280.4375 571.0156,280.4375 Q571.3906,280.4375 571.625,280.7031 Q571.8594,280.9531 571.8594,281.5625 L571.8594,283.0156 Q571.8594,283.625 571.625,283.8906 Q571.3906,284.1563 571.0156,284.1563 Q570.6719,284.1563 570.4688,283.9531 Q570.2656,283.7656 570.1563,283.25 Q570.1094,282.8906 569.9219,282.7031 Q569.5938,282.3281 568.9844,282.1094 Q568.375,281.8906 567.75,281.8906 Q566.9844,281.8906 566.3438,282.2188 Q565.7188,282.5469 565.2188,283.2969 Q564.7344,284.0469 564.7344,285.0781 L564.7344,286.1719 Q564.7344,287.4063 565.625,288.2344 Q566.5156,289.0469 568.1094,289.0469 Q569.0469,289.0469 569.7031,288.7969 Q570.0938,288.6406 570.5156,288.2031 Q570.7813,287.9375 570.9219,287.8594 Q571.0781,287.7813 571.2813,287.7813 Q571.6094,287.7813 571.8594,288.0469 Q572.125,288.2969 572.125,288.6406 Q572.125,288.9844 571.7813,289.3906 Q571.2813,289.9688 570.4844,290.2969 Q569.4063,290.75 568.1094,290.75 Q566.5938,290.75 565.3906,290.125 Q564.4063,289.625 563.7188,288.5625 Q563.0313,287.4844 563.0313,286.2031 L563.0313,285.0469 Q563.0313,283.7188 563.6406,282.5781 Q564.2656,281.4219 565.3594,280.8125 Q566.4531,280.1875 567.6875,280.1875 Q568.4219,280.1875 569.0625,280.3594 Q569.7188,280.5156 570.2656,280.875 Z " fill="#000000"/><text fill="#000000" font-family="sans-serif" font-size="12" lengthAdjust="spacing" textLength="145" x="581.5" y="289.9102">ExerciseCameraFragment</text><line style="stroke:#A80036;stroke-width:1.5;" x1="553.5" x2="728.5" y1="301" y2="301"/><line style="stroke:#A80036;stroke-width:1.5;" x1="553.5" x2="728.5" y1="309" y2="309"/><!--MD5=[4c20487f535b86697d13d0250550d573]
class HomeFragment--><rect codeLine="33" fill="#FEFECE" filter="url(#fy0jswihv9mii)" height="48" id="HomeFragment" style="stroke:#A80036;stroke-width:1.5;" width="119" x="581.5" y="881"/><ellipse cx="596.5" cy="897" fill="#ADD1B2" rx="11" ry="11" style="stroke:#A80036;stroke-width:1.0;"/><path d="M599.2656,892.875 Q599.4219,892.6563 599.6094,892.5469 Q599.7969,892.4375 600.0156,892.4375 Q600.3906,892.4375 600.625,892.7031 Q600.8594,892.9531 600.8594,893.5625 L600.8594,895.0156 Q600.8594,895.625 600.625,895.8906 Q600.3906,896.1563 600.0156,896.1563 Q599.6719,896.1563 599.4688,895.9531 Q599.2656,895.7656 599.1563,895.25 Q599.1094,894.8906 598.9219,894.7031 Q598.5938,894.3281 597.9844,894.1094 Q597.375,893.8906 596.75,893.8906 Q595.9844,893.8906 595.3438,894.2188 Q594.7188,894.5469 594.2188,895.2969 Q593.7344,896.0469 593.7344,897.0781 L593.7344,898.1719 Q593.7344,899.4063 594.625,900.2344 Q595.5156,901.0469 597.1094,901.0469 Q598.0469,901.0469 598.7031,900.7969 Q599.0938,900.6406 599.5156,900.2031 Q599.7813,899.9375 599.9219,899.8594 Q600.0781,899.7813 600.2813,899.7813 Q600.6094,899.7813 600.8594,900.0469 Q601.125,900.2969 601.125,900.6406 Q601.125,900.9844 600.7813,901.3906 Q600.2813,901.9688 599.4844,902.2969 Q598.4063,902.75 597.1094,902.75 Q595.5938,902.75 594.3906,902.125 Q593.4063,901.625 592.7188,900.5625 Q592.0313,899.4844 592.0313,898.2031 L592.0313,897.0469 Q592.0313,895.7188 592.6406,894.5781 Q593.2656,893.4219 594.3594,892.8125 Q595.4531,892.1875 596.6875,892.1875 Q597.4219,892.1875 598.0625,892.3594 Q598.7188,892.5156 599.2656,892.875 Z " fill="#000000"/><text fill="#000000" font-family="sans-serif" font-size="12" lengthAdjust="spacing" textLength="87" x="610.5" y="901.9102">HomeFragment</text><line style="stroke:#A80036;stroke-width:1.5;" x1="582.5" x2="699.5" y1="913" y2="913"/><line style="stroke:#A80036;stroke-width:1.5;" x1="582.5" x2="699.5" y1="921" y2="921"/><!--MD5=[b64d92e88298bb8a9256174e350ab439]
class NotficiationsFragment--><rect codeLine="34" fill="#FEFECE" filter="url(#fy0jswihv9mii)" height="48" id="NotficiationsFragment" style="stroke:#A80036;stroke-width:1.5;" width="153" x="564.5" y="798"/><ellipse cx="579.5" cy="814" fill="#ADD1B2" rx="11" ry="11" style="stroke:#A80036;stroke-width:1.0;"/><path d="M582.2656,809.875 Q582.4219,809.6563 582.6094,809.5469 Q582.7969,809.4375 583.0156,809.4375 Q583.3906,809.4375 583.625,809.7031 Q583.8594,809.9531 583.8594,810.5625 L583.8594,812.0156 Q583.8594,812.625 583.625,812.8906 Q583.3906,813.1563 583.0156,813.1563 Q582.6719,813.1563 582.4688,812.9531 Q582.2656,812.7656 582.1563,812.25 Q582.1094,811.8906 581.9219,811.7031 Q581.5938,811.3281 580.9844,811.1094 Q580.375,810.8906 579.75,810.8906 Q578.9844,810.8906 578.3438,811.2188 Q577.7188,811.5469 577.2188,812.2969 Q576.7344,813.0469 576.7344,814.0781 L576.7344,815.1719 Q576.7344,816.4063 577.625,817.2344 Q578.5156,818.0469 580.1094,818.0469 Q581.0469,818.0469 581.7031,817.7969 Q582.0938,817.6406 582.5156,817.2031 Q582.7813,816.9375 582.9219,816.8594 Q583.0781,816.7813 583.2813,816.7813 Q583.6094,816.7813 583.8594,817.0469 Q584.125,817.2969 584.125,817.6406 Q584.125,817.9844 583.7813,818.3906 Q583.2813,818.9688 582.4844,819.2969 Q581.4063,819.75 580.1094,819.75 Q578.5938,819.75 577.3906,819.125 Q576.4063,818.625 575.7188,817.5625 Q575.0313,816.4844 575.0313,815.2031 L575.0313,814.0469 Q575.0313,812.7188 575.6406,811.5781 Q576.2656,810.4219 577.3594,809.8125 Q578.4531,809.1875 579.6875,809.1875 Q580.4219,809.1875 581.0625,809.3594 Q581.7188,809.5156 582.2656,809.875 Z " fill="#000000"/><text fill="#000000" font-family="sans-serif" font-size="12" lengthAdjust="spacing" textLength="121" x="593.5" y="818.9102">NotficiationsFragment</text><line style="stroke:#A80036;stroke-width:1.5;" x1="565.5" x2="716.5" y1="830" y2="830"/><line style="stroke:#A80036;stroke-width:1.5;" x1="565.5" x2="716.5" y1="838" y2="838"/><!--MD5=[4ded613f88ec8f0e6cda58286b44e711]
class ProfileFragment--><rect codeLine="35" fill="#FEFECE" filter="url(#fy0jswihv9mii)" height="48" id="ProfileFragment" style="stroke:#A80036;stroke-width:1.5;" width="120" x="828" y="840"/><ellipse cx="843" cy="856" fill="#ADD1B2" rx="11" ry="11" style="stroke:#A80036;stroke-width:1.0;"/><path d="M845.7656,851.875 Q845.9219,851.6563 846.1094,851.5469 Q846.2969,851.4375 846.5156,851.4375 Q846.8906,851.4375 847.125,851.7031 Q847.3594,851.9531 847.3594,852.5625 L847.3594,854.0156 Q847.3594,854.625 847.125,854.8906 Q846.8906,855.1563 846.5156,855.1563 Q846.1719,855.1563 845.9688,854.9531 Q845.7656,854.7656 845.6563,854.25 Q845.6094,853.8906 845.4219,853.7031 Q845.0938,853.3281 844.4844,853.1094 Q843.875,852.8906 843.25,852.8906 Q842.4844,852.8906 841.8438,853.2188 Q841.2188,853.5469 840.7188,854.2969 Q840.2344,855.0469 840.2344,856.0781 L840.2344,857.1719 Q840.2344,858.4063 841.125,859.2344 Q842.0156,860.0469 843.6094,860.0469 Q844.5469,860.0469 845.2031,859.7969 Q845.5938,859.6406 846.0156,859.2031 Q846.2813,858.9375 846.4219,858.8594 Q846.5781,858.7813 846.7813,858.7813 Q847.1094,858.7813 847.3594,859.0469 Q847.625,859.2969 847.625,859.6406 Q847.625,859.9844 847.2813,860.3906 Q846.7813,860.9688 845.9844,861.2969 Q844.9063,861.75 843.6094,861.75 Q842.0938,861.75 840.8906,861.125 Q839.9063,860.625 839.2188,859.5625 Q838.5313,858.4844 838.5313,857.2031 L838.5313,856.0469 Q838.5313,854.7188 839.1406,853.5781 Q839.7656,852.4219 840.8594,851.8125 Q841.9531,851.1875 843.1875,851.1875 Q843.9219,851.1875 844.5625,851.3594 Q845.2188,851.5156 845.7656,851.875 Z " fill="#000000"/><text fill="#000000" font-family="sans-serif" font-size="12" lengthAdjust="spacing" textLength="88" x="857" y="860.9102">ProfileFragment</text><line style="stroke:#A80036;stroke-width:1.5;" x1="829" x2="947" y1="872" y2="872"/><line style="stroke:#A80036;stroke-width:1.5;" x1="829" x2="947" y1="880" y2="880"/><!--MD5=[a76e241e044adfbf5cfab0e162a00320]
class StatsFragment--><rect codeLine="36" fill="#FEFECE" filter="url(#fy0jswihv9mii)" height="48" id="StatsFragment" style="stroke:#A80036;stroke-width:1.5;" width="113" x="831.5" y="532"/><ellipse cx="846.5" cy="548" fill="#ADD1B2" rx="11" ry="11" style="stroke:#A80036;stroke-width:1.0;"/><path d="M849.2656,543.875 Q849.4219,543.6563 849.6094,543.5469 Q849.7969,543.4375 850.0156,543.4375 Q850.3906,543.4375 850.625,543.7031 Q850.8594,543.9531 850.8594,544.5625 L850.8594,546.0156 Q850.8594,546.625 850.625,546.8906 Q850.3906,547.1563 850.0156,547.1563 Q849.6719,547.1563 849.4688,546.9531 Q849.2656,546.7656 849.1563,546.25 Q849.1094,545.8906 848.9219,545.7031 Q848.5938,545.3281 847.9844,545.1094 Q847.375,544.8906 846.75,544.8906 Q845.9844,544.8906 845.3438,545.2188 Q844.7188,545.5469 844.2188,546.2969 Q843.7344,547.0469 843.7344,548.0781 L843.7344,549.1719 Q843.7344,550.4063 844.625,551.2344 Q845.5156,552.0469 847.1094,552.0469 Q848.0469,552.0469 848.7031,551.7969 Q849.0938,551.6406 849.5156,551.2031 Q849.7813,550.9375 849.9219,550.8594 Q850.0781,550.7813 850.2813,550.7813 Q850.6094,550.7813 850.8594,551.0469 Q851.125,551.2969 851.125,551.6406 Q851.125,551.9844 850.7813,552.3906 Q850.2813,552.9688 849.4844,553.2969 Q848.4063,553.75 847.1094,553.75 Q845.5938,553.75 844.3906,553.125 Q843.4063,552.625 842.7188,551.5625 Q842.0313,550.4844 842.0313,549.2031 L842.0313,548.0469 Q842.0313,546.7188 842.6406,545.5781 Q843.2656,544.4219 844.3594,543.8125 Q845.4531,543.1875 846.6875,543.1875 Q847.4219,543.1875 848.0625,543.3594 Q848.7188,543.5156 849.2656,543.875 Z " fill="#000000"/><text fill="#000000" font-family="sans-serif" font-size="12" lengthAdjust="spacing" textLength="81" x="860.5" y="552.9102">StatsFragment</text><line style="stroke:#A80036;stroke-width:1.5;" x1="832.5" x2="943.5" y1="564" y2="564"/><line style="stroke:#A80036;stroke-width:1.5;" x1="832.5" x2="943.5" y1="572" y2="572"/><!--MD5=[14ca3e4016ddf05437fd95de298b3cac]
class CalenderFragment--><rect codeLine="28" fill="#FEFECE" filter="url(#fy0jswihv9mii)" height="48" id="CalenderFragment" style="stroke:#A80036;stroke-width:1.5;" width="136" x="820" y="715"/><ellipse cx="835" cy="731" fill="#ADD1B2" rx="11" ry="11" style="stroke:#A80036;stroke-width:1.0;"/><path d="M837.7656,726.875 Q837.9219,726.6563 838.1094,726.5469 Q838.2969,726.4375 838.5156,726.4375 Q838.8906,726.4375 839.125,726.7031 Q839.3594,726.9531 839.3594,727.5625 L839.3594,729.0156 Q839.3594,729.625 839.125,729.8906 Q838.8906,730.1563 838.5156,730.1563 Q838.1719,730.1563 837.9688,729.9531 Q837.7656,729.7656 837.6563,729.25 Q837.6094,728.8906 837.4219,728.7031 Q837.0938,728.3281 836.4844,728.1094 Q835.875,727.8906 835.25,727.8906 Q834.4844,727.8906 833.8438,728.2188 Q833.2188,728.5469 832.7188,729.2969 Q832.2344,730.0469 832.2344,731.0781 L832.2344,732.1719 Q832.2344,733.4063 833.125,734.2344 Q834.0156,735.0469 835.6094,735.0469 Q836.5469,735.0469 837.2031,734.7969 Q837.5938,734.6406 838.0156,734.2031 Q838.2813,733.9375 838.4219,733.8594 Q838.5781,733.7813 838.7813,733.7813 Q839.1094,733.7813 839.3594,734.0469 Q839.625,734.2969 839.625,734.6406 Q839.625,734.9844 839.2813,735.3906 Q838.7813,735.9688 837.9844,736.2969 Q836.9063,736.75 835.6094,736.75 Q834.0938,736.75 832.8906,736.125 Q831.9063,735.625 831.2188,734.5625 Q830.5313,733.4844 830.5313,732.2031 L830.5313,731.0469 Q830.5313,729.7188 831.1406,728.5781 Q831.7656,727.4219 832.8594,726.8125 Q833.9531,726.1875 835.1875,726.1875 Q835.9219,726.1875 836.5625,726.3594 Q837.2188,726.5156 837.7656,726.875 Z " fill="#000000"/><text fill="#000000" font-family="sans-serif" font-size="12" lengthAdjust="spacing" textLength="104" x="849" y="735.9102">CalenderFragment</text><line style="stroke:#A80036;stroke-width:1.5;" x1="821" x2="955" y1="747" y2="747"/><line style="stroke:#A80036;stroke-width:1.5;" x1="821" x2="955" y1="755" y2="755"/><!--MD5=[777495f949ef2cfb87cd50770db1b743]
class DayViewContainer--><rect codeLine="29" fill="#FEFECE" filter="url(#fy0jswihv9mii)" height="48" id="DayViewContainer" style="stroke:#A80036;stroke-width:1.5;" width="133" x="574.5" y="632"/><ellipse cx="589.5" cy="648" fill="#ADD1B2" rx="11" ry="11" style="stroke:#A80036;stroke-width:1.0;"/><path d="M592.2656,643.875 Q592.4219,643.6563 592.6094,643.5469 Q592.7969,643.4375 593.0156,643.4375 Q593.3906,643.4375 593.625,643.7031 Q593.8594,643.9531 593.8594,644.5625 L593.8594,646.0156 Q593.8594,646.625 593.625,646.8906 Q593.3906,647.1563 593.0156,647.1563 Q592.6719,647.1563 592.4688,646.9531 Q592.2656,646.7656 592.1563,646.25 Q592.1094,645.8906 591.9219,645.7031 Q591.5938,645.3281 590.9844,645.1094 Q590.375,644.8906 589.75,644.8906 Q588.9844,644.8906 588.3438,645.2188 Q587.7188,645.5469 587.2188,646.2969 Q586.7344,647.0469 586.7344,648.0781 L586.7344,649.1719 Q586.7344,650.4063 587.625,651.2344 Q588.5156,652.0469 590.1094,652.0469 Q591.0469,652.0469 591.7031,651.7969 Q592.0938,651.6406 592.5156,651.2031 Q592.7813,650.9375 592.9219,650.8594 Q593.0781,650.7813 593.2813,650.7813 Q593.6094,650.7813 593.8594,651.0469 Q594.125,651.2969 594.125,651.6406 Q594.125,651.9844 593.7813,652.3906 Q593.2813,652.9688 592.4844,653.2969 Q591.4063,653.75 590.1094,653.75 Q588.5938,653.75 587.3906,653.125 Q586.4063,652.625 585.7188,651.5625 Q585.0313,650.4844 585.0313,649.2031 L585.0313,648.0469 Q585.0313,646.7188 585.6406,645.5781 Q586.2656,644.4219 587.3594,643.8125 Q588.4531,643.1875 589.6875,643.1875 Q590.4219,643.1875 591.0625,643.3594 Q591.7188,643.5156 592.2656,643.875 Z " fill="#000000"/><text fill="#000000" font-family="sans-serif" font-size="12" lengthAdjust="spacing" textLength="101" x="603.5" y="652.9102">DayViewContainer</text><line style="stroke:#A80036;stroke-width:1.5;" x1="575.5" x2="706.5" y1="664" y2="664"/><line style="stroke:#A80036;stroke-width:1.5;" x1="575.5" x2="706.5" y1="672" y2="672"/><!--MD5=[7bb736544733ea63464c2313623143f7]
class MonthViewContainer--><rect codeLine="30" fill="#FEFECE" filter="url(#fy0jswihv9mii)" height="48" id="MonthViewContainer" style="stroke:#A80036;stroke-width:1.5;" width="145" x="568.5" y="715"/><ellipse cx="583.5" cy="731" fill="#ADD1B2" rx="11" ry="11" style="stroke:#A80036;stroke-width:1.0;"/><path d="M586.2656,726.875 Q586.4219,726.6563 586.6094,726.5469 Q586.7969,726.4375 587.0156,726.4375 Q587.3906,726.4375 587.625,726.7031 Q587.8594,726.9531 587.8594,727.5625 L587.8594,729.0156 Q587.8594,729.625 587.625,729.8906 Q587.3906,730.1563 587.0156,730.1563 Q586.6719,730.1563 586.4688,729.9531 Q586.2656,729.7656 586.1563,729.25 Q586.1094,728.8906 585.9219,728.7031 Q585.5938,728.3281 584.9844,728.1094 Q584.375,727.8906 583.75,727.8906 Q582.9844,727.8906 582.3438,728.2188 Q581.7188,728.5469 581.2188,729.2969 Q580.7344,730.0469 580.7344,731.0781 L580.7344,732.1719 Q580.7344,733.4063 581.625,734.2344 Q582.5156,735.0469 584.1094,735.0469 Q585.0469,735.0469 585.7031,734.7969 Q586.0938,734.6406 586.5156,734.2031 Q586.7813,733.9375 586.9219,733.8594 Q587.0781,733.7813 587.2813,733.7813 Q587.6094,733.7813 587.8594,734.0469 Q588.125,734.2969 588.125,734.6406 Q588.125,734.9844 587.7813,735.3906 Q587.2813,735.9688 586.4844,736.2969 Q585.4063,736.75 584.1094,736.75 Q582.5938,736.75 581.3906,736.125 Q580.4063,735.625 579.7188,734.5625 Q579.0313,733.4844 579.0313,732.2031 L579.0313,731.0469 Q579.0313,729.7188 579.6406,728.5781 Q580.2656,727.4219 581.3594,726.8125 Q582.4531,726.1875 583.6875,726.1875 Q584.4219,726.1875 585.0625,726.3594 Q585.7188,726.5156 586.2656,726.875 Z " fill="#000000"/><text fill="#000000" font-family="sans-serif" font-size="12" lengthAdjust="spacing" textLength="113" x="597.5" y="735.9102">MonthViewContainer</text><line style="stroke:#A80036;stroke-width:1.5;" x1="569.5" x2="712.5" y1="747" y2="747"/><line style="stroke:#A80036;stroke-width:1.5;" x1="569.5" x2="712.5" y1="755" y2="755"/><!--MD5=[c99e4a13ca3f2c9a6a7d83550c6e825d]
class PlannedWorkoutSessionAdapter--><rect codeLine="39" fill="#FEFECE" filter="url(#fy0jswihv9mii)" height="48" id="PlannedWorkoutSessionAdapter" style="stroke:#A80036;stroke-width:1.5;" width="211" x="535.5" y="369"/><ellipse cx="550.5" cy="385" fill="#ADD1B2" rx="11" ry="11" style="stroke:#A80036;stroke-width:1.0;"/><path d="M553.2656,380.875 Q553.4219,380.6563 553.6094,380.5469 Q553.7969,380.4375 554.0156,380.4375 Q554.3906,380.4375 554.625,380.7031 Q554.8594,380.9531 554.8594,381.5625 L554.8594,383.0156 Q554.8594,383.625 554.625,383.8906 Q554.3906,384.1563 554.0156,384.1563 Q553.6719,384.1563 553.4688,383.9531 Q553.2656,383.7656 553.1563,383.25 Q553.1094,382.8906 552.9219,382.7031 Q552.5938,382.3281 551.9844,382.1094 Q551.375,381.8906 550.75,381.8906 Q549.9844,381.8906 549.3438,382.2188 Q548.7188,382.5469 548.2188,383.2969 Q547.7344,384.0469 547.7344,385.0781 L547.7344,386.1719 Q547.7344,387.4063 548.625,388.2344 Q549.5156,389.0469 551.1094,389.0469 Q552.0469,389.0469 552.7031,388.7969 Q553.0938,388.6406 553.5156,388.2031 Q553.7813,387.9375 553.9219,387.8594 Q554.0781,387.7813 554.2813,387.7813 Q554.6094,387.7813 554.8594,388.0469 Q555.125,388.2969 555.125,388.6406 Q555.125,388.9844 554.7813,389.3906 Q554.2813,389.9688 553.4844,390.2969 Q552.4063,390.75 551.1094,390.75 Q549.5938,390.75 548.3906,390.125 Q547.4063,389.625 546.7188,388.5625 Q546.0313,387.4844 546.0313,386.2031 L546.0313,385.0469 Q546.0313,383.7188 546.6406,382.5781 Q547.2656,381.4219 548.3594,380.8125 Q549.4531,380.1875 550.6875,380.1875 Q551.4219,380.1875 552.0625,380.3594 Q552.7188,380.5156 553.2656,380.875 Z " fill="#000000"/><text fill="#000000" font-family="sans-serif" font-size="12" lengthAdjust="spacing" textLength="179" x="564.5" y="389.9102">PlannedWorkoutSessionAdapter</text><line style="stroke:#A80036;stroke-width:1.5;" x1="536.5" x2="745.5" y1="401" y2="401"/><line style="stroke:#A80036;stroke-width:1.5;" x1="536.5" x2="745.5" y1="409" y2="409"/><!--MD5=[e1ada96a81ae3fb739841a521f73483a]
class WorkoutDayFragment--><rect codeLine="40" fill="#FEFECE" filter="url(#fy0jswihv9mii)" height="48" id="WorkoutDayFragment" style="stroke:#A80036;stroke-width:1.5;" width="151" x="812.5" y="409"/><ellipse cx="827.5" cy="425" fill="#ADD1B2" rx="11" ry="11" style="stroke:#A80036;stroke-width:1.0;"/><path d="M830.2656,420.875 Q830.4219,420.6563 830.6094,420.5469 Q830.7969,420.4375 831.0156,420.4375 Q831.3906,420.4375 831.625,420.7031 Q831.8594,420.9531 831.8594,421.5625 L831.8594,423.0156 Q831.8594,423.625 831.625,423.8906 Q831.3906,424.1563 831.0156,424.1563 Q830.6719,424.1563 830.4688,423.9531 Q830.2656,423.7656 830.1563,423.25 Q830.1094,422.8906 829.9219,422.7031 Q829.5938,422.3281 828.9844,422.1094 Q828.375,421.8906 827.75,421.8906 Q826.9844,421.8906 826.3438,422.2188 Q825.7188,422.5469 825.2188,423.2969 Q824.7344,424.0469 824.7344,425.0781 L824.7344,426.1719 Q824.7344,427.4063 825.625,428.2344 Q826.5156,429.0469 828.1094,429.0469 Q829.0469,429.0469 829.7031,428.7969 Q830.0938,428.6406 830.5156,428.2031 Q830.7813,427.9375 830.9219,427.8594 Q831.0781,427.7813 831.2813,427.7813 Q831.6094,427.7813 831.8594,428.0469 Q832.125,428.2969 832.125,428.6406 Q832.125,428.9844 831.7813,429.3906 Q831.2813,429.9688 830.4844,430.2969 Q829.4063,430.75 828.1094,430.75 Q826.5938,430.75 825.3906,430.125 Q824.4063,429.625 823.7188,428.5625 Q823.0313,427.4844 823.0313,426.2031 L823.0313,425.0469 Q823.0313,423.7188 823.6406,422.5781 Q824.2656,421.4219 825.3594,420.8125 Q826.4531,420.1875 827.6875,420.1875 Q828.4219,420.1875 829.0625,420.3594 Q829.7188,420.5156 830.2656,420.875 Z " fill="#000000"/><text fill="#000000" font-family="sans-serif" font-size="12" lengthAdjust="spacing" textLength="119" x="841.5" y="429.9102">WorkoutDayFragment</text><line style="stroke:#A80036;stroke-width:1.5;" x1="813.5" x2="962.5" y1="441" y2="441"/><line style="stroke:#A80036;stroke-width:1.5;" x1="813.5" x2="962.5" y1="449" y2="449"/><!--MD5=[75f4e10e4e6e8f03fa37c0ee557199e2]
class WorkoutDayViewModel--><rect codeLine="41" fill="#FEFECE" filter="url(#fy0jswihv9mii)" height="48" id="WorkoutDayViewModel" style="stroke:#A80036;stroke-width:1.5;" width="157" x="562.5" y="452"/><ellipse cx="577.5" cy="468" fill="#ADD1B2" rx="11" ry="11" style="stroke:#A80036;stroke-width:1.0;"/><path d="M580.2656,463.875 Q580.4219,463.6563 580.6094,463.5469 Q580.7969,463.4375 581.0156,463.4375 Q581.3906,463.4375 581.625,463.7031 Q581.8594,463.9531 581.8594,464.5625 L581.8594,466.0156 Q581.8594,466.625 581.625,466.8906 Q581.3906,467.1563 581.0156,467.1563 Q580.6719,467.1563 580.4688,466.9531 Q580.2656,466.7656 580.1563,466.25 Q580.1094,465.8906 579.9219,465.7031 Q579.5938,465.3281 578.9844,465.1094 Q578.375,464.8906 577.75,464.8906 Q576.9844,464.8906 576.3438,465.2188 Q575.7188,465.5469 575.2188,466.2969 Q574.7344,467.0469 574.7344,468.0781 L574.7344,469.1719 Q574.7344,470.4063 575.625,471.2344 Q576.5156,472.0469 578.1094,472.0469 Q579.0469,472.0469 579.7031,471.7969 Q580.0938,471.6406 580.5156,471.2031 Q580.7813,470.9375 580.9219,470.8594 Q581.0781,470.7813 581.2813,470.7813 Q581.6094,470.7813 581.8594,471.0469 Q582.125,471.2969 582.125,471.6406 Q582.125,471.9844 581.7813,472.3906 Q581.2813,472.9688 580.4844,473.2969 Q579.4063,473.75 578.1094,473.75 Q576.5938,473.75 575.3906,473.125 Q574.4063,472.625 573.7188,471.5625 Q573.0313,470.4844 573.0313,469.2031 L573.0313,468.0469 Q573.0313,466.7188 573.6406,465.5781 Q574.2656,464.4219 575.3594,463.8125 Q576.4531,463.1875 577.6875,463.1875 Q578.4219,463.1875 579.0625,463.3594 Q579.7188,463.5156 580.2656,463.875 Z " fill="#000000"/><text fill="#000000" font-family="sans-serif" font-size="12" lengthAdjust="spacing" textLength="125" x="591.5" y="472.9102">WorkoutDayViewModel</text><line style="stroke:#A80036;stroke-width:1.5;" x1="563.5" x2="718.5" y1="484" y2="484"/><line style="stroke:#A80036;stroke-width:1.5;" x1="563.5" x2="718.5" y1="492" y2="492"/><!--MD5=[94f01c375032f0313a406f305bbed4a6]
reverse link ExerciseDetector to SquatExerciseDetector--><path codeLine="48" d="M970.69,193 C991.48,193 1013.75,193 1034.33,193 " fill="none" id="ExerciseDetector-backto-SquatExerciseDetector" style="stroke:#A80036;stroke-width:1.0;"/><polygon fill="none" points="970.53,200,950.53,193,970.53,186,970.53,200" style="stroke:#A80036;stroke-width:1.0;"/><!--MD5=[e8834b4cd1b8068800e9fa56e17216c4]
reverse link ExercisePoseConstraint to ExerciseAngleConstraint--><path codeLine="49" d="M989.96,110 C1003.14,110 1016.52,110 1029.36,110 " fill="none" id="ExercisePoseConstraint-backto-ExerciseAngleConstraint" style="stroke:#A80036;stroke-width:1.0;"/><polygon fill="none" points="989.51,117,969.51,110,989.51,103,989.51,117" style="stroke:#A80036;stroke-width:1.0;"/><!--MD5=[020d9336ff7a36a685b78d105f077555]
reverse link ExercisePoseConstraints to ExercisePoseConstraint--><path codeLine="50" d="M740.14,110 C762.09,110 785.12,110 806.27,110 " fill="none" id="ExercisePoseConstraints-backto-ExercisePoseConstraint" style="stroke:#A80036;stroke-width:1.0;"/><polygon fill="#FFFFFF" points="727,110,733,114,739,110,733,106,727,110" style="stroke:#A80036;stroke-width:1.0;"/><!--MD5=[28281cdcf17765f7268101b2b170223b]
reverse link ExerciseCameraFragment to ExerciseDetector--><path codeLine="51" d="M742.47,275.05 C752.6,272.15 762.6,268.82 772,265 C801.9,252.86 832.73,233.09 854.94,217.34 " fill="none" id="ExerciseCameraFragment-backto-ExerciseDetector" style="stroke:#A80036;stroke-width:1.0;"/><polygon fill="#FFFFFF" points="729.62,278.5,736.452,280.8074,741.2096,275.3884,734.3776,273.081,729.62,278.5" style="stroke:#A80036;stroke-width:1.0;"/><!--MD5=[7640d20a9140918d80f163421c8d648d]
reverse link ExercisePoseConstraint to SquatExerciseDetector--><path codeLine="52" d="M976.15,138.3 C988.08,142.43 1000.13,146.73 1011.5,151 C1026.19,156.52 1041.92,162.88 1056.47,168.95 " fill="none" id="ExercisePoseConstraint-backto-SquatExerciseDetector" style="stroke:#A80036;stroke-width:1.0;"/><polygon fill="#FFFFFF" points="963.8,134.07,968.1796,139.7988,975.1522,137.9595,970.7726,132.2307,963.8,134.07" style="stroke:#A80036;stroke-width:1.0;"/><!--MD5=[fe147a0e0bdef2c3e8b11b4f5bdcd46a]
reverse link CalenderRepository to TestCalenderRepository--><path codeLine="55" d="M476.03,1239 C502.7,1239 531.73,1239 557.84,1239 " fill="none" id="CalenderRepository-backto-TestCalenderRepository" style="stroke:#A80036;stroke-width:1.0;"/><polygon fill="none" points="475.72,1246,455.72,1239,475.72,1232,475.72,1246" style="stroke:#A80036;stroke-width:1.0;"/><!--MD5=[2c92776a9de92f6a808ec5e4e39234f4]
reverse link PlannedWorkoutSession to CalenderRepository--><path codeLine="56" d="M262.18,1239 C279.34,1239 296.92,1239 313.17,1239 " fill="none" id="PlannedWorkoutSession-backto-CalenderRepository" style="stroke:#A80036;stroke-width:1.0;"/><polygon fill="#FFFFFF" points="249.16,1239,255.16,1243,261.16,1239,255.16,1235,249.16,1239" style="stroke:#A80036;stroke-width:1.0;"/><!--MD5=[3272993b63446f068b34f145762b6516]
reverse link CalenderRepository to WorkoutDayViewModel--><path codeLine="57" d="M386.52,1201.69 C390.3,1083.22 406.43,717.45 463.5,616 C492.93,563.67 550.53,523.76 591.93,500.19 " fill="none" id="CalenderRepository-backto-WorkoutDayViewModel" style="stroke:#A80036;stroke-width:1.0;"/><polygon fill="#FFFFFF" points="386.11,1214.88,390.2926,1209.0059,386.4791,1202.8857,382.2964,1208.7598,386.11,1214.88" style="stroke:#A80036;stroke-width:1.0;"/><!--MD5=[48bb6aa8b116d0a9b3d124dae5f86982]
reverse link CalenderRepository to CalenderFragment--><path codeLine="58" d="M437.97,1208.72 C446.36,1204.47 455.06,1200.4 463.5,1197 C595.53,1143.82 680.36,1219.92 772,1111 C870.92,993.42 711.32,887.63 806.5,767 C810.26,762.24 814.88,758.28 819.98,755 " fill="none" id="CalenderRepository-backto-CalenderFragment" style="stroke:#A80036;stroke-width:1.0;"/><polygon fill="#FFFFFF" points="426.37,1214.79,433.5409,1215.5506,437.001,1209.2239,429.8301,1208.4633,426.37,1214.79" style="stroke:#A80036;stroke-width:1.0;"/><!--MD5=[fe337455419582bde6435381b3422a6a]
reverse link WorkoutDayViewModel to WorkoutDayFragment--><path codeLine="59" d="M732.64,460.09 C758.92,455.48 787.32,450.5 812.49,446.08 " fill="none" id="WorkoutDayViewModel-backto-WorkoutDayFragment" style="stroke:#A80036;stroke-width:1.0;"/><polygon fill="#FFFFFF" points="719.52,462.39,726.1203,465.2944,731.3399,460.3189,724.7396,457.4145,719.52,462.39" style="stroke:#A80036;stroke-width:1.0;"/><!--MD5=[f0b9e683933ffec02e44440072f5071a]
reverse link PlannedWorkoutSessionAdapter to WorkoutDayFragment--><path codeLine="60" d="M759.64,412.21 C777.59,415.14 795.68,418.09 812.36,420.81 " fill="none" id="PlannedWorkoutSessionAdapter-backto-WorkoutDayFragment" style="stroke:#A80036;stroke-width:1.0;"/><polygon fill="#FFFFFF" points="746.61,410.08,751.885,414.9967,758.4524,412.0186,753.1774,407.1018,746.61,410.08" style="stroke:#A80036;stroke-width:1.0;"/><!--MD5=[639fce2da7d1fab3e0c6e81f7f572076]
reverse link TrainingNotificationService to MyApp--><path codeLine="61" d="M266.54,1426 C297.07,1426 328.43,1426 350.98,1426 " fill="none" id="TrainingNotificationService-backto-MyApp" style="stroke:#A80036;stroke-width:1.0;"/><polygon fill="#FFFFFF" points="253.54,1426,259.54,1430,265.54,1426,259.54,1422,253.54,1426" style="stroke:#A80036;stroke-width:1.0;"/><!--MD5=[69e88bb5b8eca1c643983d7df484f161]
reverse link DayViewContainer to CalenderFragment--><path codeLine="62" d="M720.38,679.61 C737.48,685.07 755.42,691.03 772,697 C787.57,702.6 791.01,705.17 806.5,711 C810.79,712.62 815.23,714.25 819.7,715.88 " fill="none" id="DayViewContainer-backto-CalenderFragment" style="stroke:#A80036;stroke-width:1.0;"/><polygon fill="#FFFFFF" points="707.81,675.63,712.3217,681.2553,719.2496,679.2543,714.7379,673.6289,707.81,675.63" style="stroke:#A80036;stroke-width:1.0;"/><!--MD5=[4aa5031e480cca85c11893092a03fd73]
reverse link MonthViewContainer to CalenderFragment--><path codeLine="63" d="M726.75,739 C757.11,739 790.9,739 819.59,739 " fill="none" id="MonthViewContainer-backto-CalenderFragment" style="stroke:#A80036;stroke-width:1.0;"/><polygon fill="#FFFFFF" points="713.52,739,719.52,743,725.52,739,719.52,735,713.52,739" style="stroke:#A80036;stroke-width:1.0;"/><!--MD5=[81f2ffb58d1ea6af208b2dfbe60ae31e]
link HomeFragment to NotficiationsFragment--><!--MD5=[33ae67074c1c78760314a0e03944bea1]
link HomeFragment to ProfileFragment--><!--MD5=[7ec77b7fd1bc1fbbd75097c089dfb801]
link ProfileFragment to StatsFragment--><!--MD5=[1e1137ee6d575217789b3c3bb8579658]
@startuml FitnessApp

left to right direction

package com.groupfive.fitness <<Folder>> {
    Class MainActivity
    Class MyApp
    Class TrainingNotificationService

    package Calender <<Folder>>{ 
        package Repository <<Folder>> { 
        Interface CalenderRepository
            Class PlannedWorkoutSession
            Class TestCalenderRepository 
        }  
    }

    package Exercise <<Folder>> {
        Class ExerciseAngleConstraint
        Interface ExerciseDetector
        Interface ExercisePoseConstraint
        Class ExercisePoseConstraints
        Class ExerciseUtils
        Class SquatExerciseDetector
        Enum WorkoutType

    package Fragments <<Folder>> {
        package Calendar <<Folder>> {
        	Class CalenderFragment
        	Class DayViewContainer
        	Class MonthViewContainer
	}
        Class ExerciseCameraFragment
        Class HomeFragment
        Class NotficiationsFragment
        Class ProfileFragment
        Class StatsFragment

        package Workoutday <<Folder>> {
            Class PlannedWorkoutSessionAdapter
            Class WorkoutDayFragment
            Class WorkoutDayViewModel

        }
    }
}

' Exercise system
ExerciseDetector <|- - SquatExerciseDetector
ExercisePoseConstraint <|- - ExerciseAngleConstraint
ExercisePoseConstraints o- - ExercisePoseConstraint
ExerciseCameraFragment o- - ExerciseDetector
ExercisePoseConstraint o- - SquatExerciseDetector

' Calender
CalenderRepository <|- - TestCalenderRepository
PlannedWorkoutSession o- - CalenderRepository
CalenderRepository o- - WorkoutDayViewModel
CalenderRepository o- - CalenderFragment
WorkoutDayViewModel o- - WorkoutDayFragment
PlannedWorkoutSessionAdapter o- - WorkoutDayFragment
TrainingNotificationService o- - MyApp
DayViewContainer o- - CalenderFragment
MonthViewContainer o- - CalenderFragment
@enduml

@startuml FitnessApp

left to right direction

package com.groupfive.fitness <<Folder>> {
    Class MainActivity
    Class MyApp
    Class TrainingNotificationService

    package Calender <<Folder>>{ 
        package Repository <<Folder>> { 
        Interface CalenderRepository
            Class PlannedWorkoutSession
            Class TestCalenderRepository 
        }  
    }

    package Exercise <<Folder>> {
        Class ExerciseAngleConstraint
        Interface ExerciseDetector
        Interface ExercisePoseConstraint
        Class ExercisePoseConstraints
        Class ExerciseUtils
        Class SquatExerciseDetector
        Enum WorkoutType

    package Fragments <<Folder>> {
        package Calendar <<Folder>> {
        	Class CalenderFragment
        	Class DayViewContainer
        	Class MonthViewContainer
	}
        Class ExerciseCameraFragment
        Class HomeFragment
        Class NotficiationsFragment
        Class ProfileFragment
        Class StatsFragment

        package Workoutday <<Folder>> {
            Class PlannedWorkoutSessionAdapter
            Class WorkoutDayFragment
            Class WorkoutDayViewModel

        }
    }
}

ExerciseDetector <|- - SquatExerciseDetector
ExercisePoseConstraint <|- - ExerciseAngleConstraint
ExercisePoseConstraints o- - ExercisePoseConstraint
ExerciseCameraFragment o- - ExerciseDetector
ExercisePoseConstraint o- - SquatExerciseDetector

CalenderRepository <|- - TestCalenderRepository
PlannedWorkoutSession o- - CalenderRepository
CalenderRepository o- - WorkoutDayViewModel
CalenderRepository o- - CalenderFragment
WorkoutDayViewModel o- - WorkoutDayFragment
PlannedWorkoutSessionAdapter o- - WorkoutDayFragment
TrainingNotificationService o- - MyApp
DayViewContainer o- - CalenderFragment
MonthViewContainer o- - CalenderFragment
@enduml

PlantUML version 1.2021.10(Mon Aug 30 15:43:48 CEST 2021)
(GPL source distribution)
Java Runtime: OpenJDK Runtime Environment
JVM: OpenJDK 64-Bit Server VM
Default Encoding: Cp1252
Language: en
Country: US
--></g></svg>