<?xml version="1.0" encoding="UTF-8" standalone="no"?><svg xmlns="http://www.w3.org/2000/svg" xmlns:xlink="http://www.w3.org/1999/xlink" contentScriptType="application/ecmascript" contentStyleType="text/css" height="1246px" preserveAspectRatio="none" style="width:1233px;height:1246px;background:#FFFFFF;" version="1.1" viewBox="0 0 1233 1246" width="1233px" zoomAndPan="magnify"><defs><filter height="300%" id="f1uwkfrxt4tbrq" width="300%" x="-1" y="-1"><feGaussianBlur result="blurOut" stdDeviation="2.0"/><feColorMatrix in="blurOut" result="blurOut2" type="matrix" values="0 0 0 0 0 0 0 0 0 0 0 0 0 0 0 0 0 0 .4 0"/><feOffset dx="4.0" dy="4.0" in="blurOut2" result="blurOut3"/><feBlend in="SourceGraphic" in2="blurOut3" mode="normal"/></filter></defs><g><!--MD5=[b3f4058f8840ff4af2b18cbc61253b0d]
cluster com.groupfive.fitness--><polygon fill="#FFFFFF" filter="url(#f1uwkfrxt4tbrq)" points="16,6,176,6,183,29.6094,1216.5,29.6094,1216.5,1239,16,1239,16,6" style="stroke:#000000;stroke-width:1.5;"/><line style="stroke:#000000;stroke-width:1.5;" x1="16" x2="183" y1="29.6094" y2="29.6094"/><text fill="#000000" font-family="sans-serif" font-size="14" font-weight="bold" lengthAdjust="spacing" textLength="154" x="20" y="22.5332">com.groupfive.fitness</text><!--MD5=[697371511e1405ed60df0330cde6c276]
cluster Calender--><polygon fill="#FFFFFF" filter="url(#f1uwkfrxt4tbrq)" points="40,50,110,50,117,73.6094,744,73.6094,744,218,40,218,40,50" style="stroke:#000000;stroke-width:1.5;"/><line style="stroke:#000000;stroke-width:1.5;" x1="40" x2="117" y1="73.6094" y2="73.6094"/><text fill="#000000" font-family="sans-serif" font-size="14" font-weight="bold" lengthAdjust="spacing" textLength="64" x="44" y="66.5332">Calender</text><!--MD5=[71971f99a41bb66cf321ce46bb59f738]
cluster Repository--><polygon fill="#FFFFFF" filter="url(#f1uwkfrxt4tbrq)" points="64,94,146,94,153,117.6094,720,117.6094,720,194,64,194,64,94" style="stroke:#000000;stroke-width:1.5;"/><line style="stroke:#000000;stroke-width:1.5;" x1="64" x2="153" y1="117.6094" y2="117.6094"/><text fill="#000000" font-family="sans-serif" font-size="14" font-weight="bold" lengthAdjust="spacing" textLength="76" x="68" y="110.5332">Repository</text><!--MD5=[46880a98deb6967abc3c9d95b37f227a]
cluster Exercise--><polygon fill="#FFFFFF" filter="url(#f1uwkfrxt4tbrq)" points="519,949,586,949,593,972.6094,1192.5,972.6094,1192.5,1215,519,1215,519,949" style="stroke:#000000;stroke-width:1.5;"/><line style="stroke:#000000;stroke-width:1.5;" x1="519" x2="593" y1="972.6094" y2="972.6094"/><text fill="#000000" font-family="sans-serif" font-size="14" font-weight="bold" lengthAdjust="spacing" textLength="61" x="523" y="965.5332">Exercise</text><!--MD5=[477546b927786c05e31d9ac83a0737ee]
cluster Fragments--><polygon fill="#FFFFFF" filter="url(#f1uwkfrxt4tbrq)" points="475.5,242,556.5,242,563.5,265.6094,983.5,265.6094,983.5,925,475.5,925,475.5,242" style="stroke:#000000;stroke-width:1.5;"/><line style="stroke:#000000;stroke-width:1.5;" x1="475.5" x2="563.5" y1="265.6094" y2="265.6094"/><text fill="#000000" font-family="sans-serif" font-size="14" font-weight="bold" lengthAdjust="spacing" textLength="75" x="479.5" y="258.5332">Fragments</text><!--MD5=[7f21890a0c14acb8a81ada658e8ff09c]
cluster Calendar--><polygon fill="#FFFFFF" filter="url(#f1uwkfrxt4tbrq)" points="532.5,286,601.5,286,608.5,309.6094,952,309.6094,952,469,532.5,469,532.5,286" style="stroke:#000000;stroke-width:1.5;"/><line style="stroke:#000000;stroke-width:1.5;" x1="532.5" x2="608.5" y1="309.6094" y2="309.6094"/><text fill="#000000" font-family="sans-serif" font-size="14" font-weight="bold" lengthAdjust="spacing" textLength="63" x="536.5" y="302.5332">Calendar</text><!--MD5=[38207a05456982a8a5aa1a3c7e8f1112]
cluster Workoutday--><polygon fill="#FFFFFF" filter="url(#f1uwkfrxt4tbrq)" points="499.5,493,588.5,493,595.5,516.6094,959.5,516.6094,959.5,676,499.5,676,499.5,493" style="stroke:#000000;stroke-width:1.5;"/><line style="stroke:#000000;stroke-width:1.5;" x1="499.5" x2="595.5" y1="516.6094" y2="516.6094"/><text fill="#000000" font-family="sans-serif" font-size="14" font-weight="bold" lengthAdjust="spacing" textLength="83" x="503.5" y="509.5332">Workoutday</text><!--MD5=[5db00888549904919e3a09c35d77129e]
class MainActivity--><rect codeLine="5" fill="#FEFECE" filter="url(#f1uwkfrxt4tbrq)" height="48" id="MainActivity" style="stroke:#A80036;stroke-width:1.5;" width="93" x="118" y="449"/><ellipse cx="133" cy="465" fill="#ADD1B2" rx="11" ry="11" style="stroke:#A80036;stroke-width:1.0;"/><path d="M135.7656,460.875 Q135.9219,460.6563 136.1094,460.5469 Q136.2969,460.4375 136.5156,460.4375 Q136.8906,460.4375 137.125,460.7031 Q137.3594,460.9531 137.3594,461.5625 L137.3594,463.0156 Q137.3594,463.625 137.125,463.8906 Q136.8906,464.1563 136.5156,464.1563 Q136.1719,464.1563 135.9688,463.9531 Q135.7656,463.7656 135.6563,463.25 Q135.6094,462.8906 135.4219,462.7031 Q135.0938,462.3281 134.4844,462.1094 Q133.875,461.8906 133.25,461.8906 Q132.4844,461.8906 131.8438,462.2188 Q131.2188,462.5469 130.7188,463.2969 Q130.2344,464.0469 130.2344,465.0781 L130.2344,466.1719 Q130.2344,467.4063 131.125,468.2344 Q132.0156,469.0469 133.6094,469.0469 Q134.5469,469.0469 135.2031,468.7969 Q135.5938,468.6406 136.0156,468.2031 Q136.2813,467.9375 136.4219,467.8594 Q136.5781,467.7813 136.7813,467.7813 Q137.1094,467.7813 137.3594,468.0469 Q137.625,468.2969 137.625,468.6406 Q137.625,468.9844 137.2813,469.3906 Q136.7813,469.9688 135.9844,470.2969 Q134.9063,470.75 133.6094,470.75 Q132.0938,470.75 130.8906,470.125 Q129.9063,469.625 129.2188,468.5625 Q128.5313,467.4844 128.5313,466.2031 L128.5313,465.0469 Q128.5313,463.7188 129.1406,462.5781 Q129.7656,461.4219 130.8594,460.8125 Q131.9531,460.1875 133.1875,460.1875 Q133.9219,460.1875 134.5625,460.3594 Q135.2188,460.5156 135.7656,460.875 Z " fill="#000000"/><text fill="#000000" font-family="sans-serif" font-size="12" lengthAdjust="spacing" textLength="61" x="147" y="469.9102">MainActivity</text><line style="stroke:#A80036;stroke-width:1.5;" x1="119" x2="210" y1="481" y2="481"/><line style="stroke:#A80036;stroke-width:1.5;" x1="119" x2="210" y1="489" y2="489"/><!--MD5=[e8d8823923596991b8cab132527541d3]
class MyApp--><rect codeLine="6" fill="#FEFECE" filter="url(#f1uwkfrxt4tbrq)" height="48" id="MyApp" style="stroke:#A80036;stroke-width:1.5;" width="67" x="351" y="961"/><ellipse cx="366" cy="977" fill="#ADD1B2" rx="11" ry="11" style="stroke:#A80036;stroke-width:1.0;"/><path d="M368.7656,972.875 Q368.9219,972.6563 369.1094,972.5469 Q369.2969,972.4375 369.5156,972.4375 Q369.8906,972.4375 370.125,972.7031 Q370.3594,972.9531 370.3594,973.5625 L370.3594,975.0156 Q370.3594,975.625 370.125,975.8906 Q369.8906,976.1563 369.5156,976.1563 Q369.1719,976.1563 368.9688,975.9531 Q368.7656,975.7656 368.6563,975.25 Q368.6094,974.8906 368.4219,974.7031 Q368.0938,974.3281 367.4844,974.1094 Q366.875,973.8906 366.25,973.8906 Q365.4844,973.8906 364.8438,974.2188 Q364.2188,974.5469 363.7188,975.2969 Q363.2344,976.0469 363.2344,977.0781 L363.2344,978.1719 Q363.2344,979.4063 364.125,980.2344 Q365.0156,981.0469 366.6094,981.0469 Q367.5469,981.0469 368.2031,980.7969 Q368.5938,980.6406 369.0156,980.2031 Q369.2813,979.9375 369.4219,979.8594 Q369.5781,979.7813 369.7813,979.7813 Q370.1094,979.7813 370.3594,980.0469 Q370.625,980.2969 370.625,980.6406 Q370.625,980.9844 370.2813,981.3906 Q369.7813,981.9688 368.9844,982.2969 Q367.9063,982.75 366.6094,982.75 Q365.0938,982.75 363.8906,982.125 Q362.9063,981.625 362.2188,980.5625 Q361.5313,979.4844 361.5313,978.2031 L361.5313,977.0469 Q361.5313,975.7188 362.1406,974.5781 Q362.7656,973.4219 363.8594,972.8125 Q364.9531,972.1875 366.1875,972.1875 Q366.9219,972.1875 367.5625,972.3594 Q368.2188,972.5156 368.7656,972.875 Z " fill="#000000"/><text fill="#000000" font-family="sans-serif" font-size="12" lengthAdjust="spacing" textLength="35" x="380" y="981.9102">MyApp</text><line style="stroke:#A80036;stroke-width:1.5;" x1="352" x2="417" y1="993" y2="993"/><line style="stroke:#A80036;stroke-width:1.5;" x1="352" x2="417" y1="1001" y2="1001"/><!--MD5=[480fa1979b9d69ba74e1266be54b9df0]
class TrainingNotificationService--><rect codeLine="7" fill="#FEFECE" filter="url(#f1uwkfrxt4tbrq)" height="48" id="TrainingNotificationService" style="stroke:#A80036;stroke-width:1.5;" width="178" x="75.5" y="961"/><ellipse cx="90.5" cy="977" fill="#ADD1B2" rx="11" ry="11" style="stroke:#A80036;stroke-width:1.0;"/><path d="M93.2656,972.875 Q93.4219,972.6563 93.6094,972.5469 Q93.7969,972.4375 94.0156,972.4375 Q94.3906,972.4375 94.625,972.7031 Q94.8594,972.9531 94.8594,973.5625 L94.8594,975.0156 Q94.8594,975.625 94.625,975.8906 Q94.3906,976.1563 94.0156,976.1563 Q93.6719,976.1563 93.4688,975.9531 Q93.2656,975.7656 93.1563,975.25 Q93.1094,974.8906 92.9219,974.7031 Q92.5938,974.3281 91.9844,974.1094 Q91.375,973.8906 90.75,973.8906 Q89.9844,973.8906 89.3438,974.2188 Q88.7188,974.5469 88.2188,975.2969 Q87.7344,976.0469 87.7344,977.0781 L87.7344,978.1719 Q87.7344,979.4063 88.625,980.2344 Q89.5156,981.0469 91.1094,981.0469 Q92.0469,981.0469 92.7031,980.7969 Q93.0938,980.6406 93.5156,980.2031 Q93.7813,979.9375 93.9219,979.8594 Q94.0781,979.7813 94.2813,979.7813 Q94.6094,979.7813 94.8594,980.0469 Q95.125,980.2969 95.125,980.6406 Q95.125,980.9844 94.7813,981.3906 Q94.2813,981.9688 93.4844,982.2969 Q92.4063,982.75 91.1094,982.75 Q89.5938,982.75 88.3906,982.125 Q87.4063,981.625 86.7188,980.5625 Q86.0313,979.4844 86.0313,978.2031 L86.0313,977.0469 Q86.0313,975.7188 86.6406,974.5781 Q87.2656,973.4219 88.3594,972.8125 Q89.4531,972.1875 90.6875,972.1875 Q91.4219,972.1875 92.0625,972.3594 Q92.7188,972.5156 93.2656,972.875 Z " fill="#000000"/><text fill="#000000" font-family="sans-serif" font-size="12" lengthAdjust="spacing" textLength="146" x="104.5" y="981.9102">TrainingNotificationService</text><line style="stroke:#A80036;stroke-width:1.5;" x1="76.5" x2="252.5" y1="993" y2="993"/><line style="stroke:#A80036;stroke-width:1.5;" x1="76.5" x2="252.5" y1="1001" y2="1001"/><!--MD5=[98cc2565dc8acf0d966f83cd190a2822]
class CalenderRepository--><rect codeLine="11" fill="#FEFECE" filter="url(#f1uwkfrxt4tbrq)" height="48" id="CalenderRepository" style="stroke:#A80036;stroke-width:1.5;" width="142" x="313.5" y="130"/><ellipse cx="328.5" cy="146" fill="#B4A7E5" rx="11" ry="11" style="stroke:#A80036;stroke-width:1.0;"/><path d="M329.4531,142.6406 L329.4531,149.2969 L331.1719,149.2969 Q331.7813,149.2969 332.0469,149.5313 Q332.3125,149.7656 332.3125,150.1563 Q332.3125,150.5313 332.0469,150.7656 Q331.7813,151 331.1719,151 L326.0313,151 Q325.4219,151 325.1563,150.7656 Q324.8906,150.5313 324.8906,150.1406 Q324.8906,149.7656 325.1563,149.5313 Q325.4219,149.2969 326.0313,149.2969 L327.75,149.2969 L327.75,142.6406 L326.0313,142.6406 Q325.4219,142.6406 325.1563,142.4063 Q324.8906,142.1719 324.8906,141.7813 Q324.8906,141.4063 325.1563,141.1719 Q325.4219,140.9375 326.0313,140.9375 L331.1719,140.9375 Q331.7813,140.9375 332.0469,141.1719 Q332.3125,141.4063 332.3125,141.7813 Q332.3125,142.1719 332.0469,142.4063 Q331.7813,142.6406 331.1719,142.6406 L329.4531,142.6406 Z " fill="#000000"/><text fill="#000000" font-family="sans-serif" font-size="12" font-style="italic" lengthAdjust="spacing" textLength="110" x="342.5" y="150.9102">CalenderRepository</text><line style="stroke:#A80036;stroke-width:1.5;" x1="314.5" x2="454.5" y1="162" y2="162"/><line style="stroke:#A80036;stroke-width:1.5;" x1="314.5" x2="454.5" y1="170" y2="170"/><!--MD5=[21e8693d02c582f21e47990c99098fa9]
class PlannedWorkoutSession--><rect codeLine="12" fill="#FEFECE" filter="url(#f1uwkfrxt4tbrq)" height="48" id="PlannedWorkoutSession" style="stroke:#A80036;stroke-width:1.5;" width="169" x="80" y="130"/><ellipse cx="95" cy="146" fill="#ADD1B2" rx="11" ry="11" style="stroke:#A80036;stroke-width:1.0;"/><path d="M97.7656,141.875 Q97.9219,141.6563 98.1094,141.5469 Q98.2969,141.4375 98.5156,141.4375 Q98.8906,141.4375 99.125,141.7031 Q99.3594,141.9531 99.3594,142.5625 L99.3594,144.0156 Q99.3594,144.625 99.125,144.8906 Q98.8906,145.1563 98.5156,145.1563 Q98.1719,145.1563 97.9688,144.9531 Q97.7656,144.7656 97.6563,144.25 Q97.6094,143.8906 97.4219,143.7031 Q97.0938,143.3281 96.4844,143.1094 Q95.875,142.8906 95.25,142.8906 Q94.4844,142.8906 93.8438,143.2188 Q93.2188,143.5469 92.7188,144.2969 Q92.2344,145.0469 92.2344,146.0781 L92.2344,147.1719 Q92.2344,148.4063 93.125,149.2344 Q94.0156,150.0469 95.6094,150.0469 Q96.5469,150.0469 97.2031,149.7969 Q97.5938,149.6406 98.0156,149.2031 Q98.2813,148.9375 98.4219,148.8594 Q98.5781,148.7813 98.7813,148.7813 Q99.1094,148.7813 99.3594,149.0469 Q99.625,149.2969 99.625,149.6406 Q99.625,149.9844 99.2813,150.3906 Q98.7813,150.9688 97.9844,151.2969 Q96.9063,151.75 95.6094,151.75 Q94.0938,151.75 92.8906,151.125 Q91.9063,150.625 91.2188,149.5625 Q90.5313,148.4844 90.5313,147.2031 L90.5313,146.0469 Q90.5313,144.7188 91.1406,143.5781 Q91.7656,142.4219 92.8594,141.8125 Q93.9531,141.1875 95.1875,141.1875 Q95.9219,141.1875 96.5625,141.3594 Q97.2188,141.5156 97.7656,141.875 Z " fill="#000000"/><text fill="#000000" font-family="sans-serif" font-size="12" lengthAdjust="spacing" textLength="137" x="109" y="150.9102">PlannedWorkoutSession</text><line style="stroke:#A80036;stroke-width:1.5;" x1="81" x2="248" y1="162" y2="162"/><line style="stroke:#A80036;stroke-width:1.5;" x1="81" x2="248" y1="170" y2="170"/><!--MD5=[62b95bffe2115a7914ec24f8fce473f1]
class TestCalenderRepository--><rect codeLine="13" fill="#FEFECE" filter="url(#f1uwkfrxt4tbrq)" height="48" id="TestCalenderRepository" style="stroke:#A80036;stroke-width:1.5;" width="166" x="538" y="130"/><ellipse cx="553" cy="146" fill="#ADD1B2" rx="11" ry="11" style="stroke:#A80036;stroke-width:1.0;"/><path d="M555.7656,141.875 Q555.9219,141.6563 556.1094,141.5469 Q556.2969,141.4375 556.5156,141.4375 Q556.8906,141.4375 557.125,141.7031 Q557.3594,141.9531 557.3594,142.5625 L557.3594,144.0156 Q557.3594,144.625 557.125,144.8906 Q556.8906,145.1563 556.5156,145.1563 Q556.1719,145.1563 555.9688,144.9531 Q555.7656,144.7656 555.6563,144.25 Q555.6094,143.8906 555.4219,143.7031 Q555.0938,143.3281 554.4844,143.1094 Q553.875,142.8906 553.25,142.8906 Q552.4844,142.8906 551.8438,143.2188 Q551.2188,143.5469 550.7188,144.2969 Q550.2344,145.0469 550.2344,146.0781 L550.2344,147.1719 Q550.2344,148.4063 551.125,149.2344 Q552.0156,150.0469 553.6094,150.0469 Q554.5469,150.0469 555.2031,149.7969 Q555.5938,149.6406 556.0156,149.2031 Q556.2813,148.9375 556.4219,148.8594 Q556.5781,148.7813 556.7813,148.7813 Q557.1094,148.7813 557.3594,149.0469 Q557.625,149.2969 557.625,149.6406 Q557.625,149.9844 557.2813,150.3906 Q556.7813,150.9688 555.9844,151.2969 Q554.9063,151.75 553.6094,151.75 Q552.0938,151.75 550.8906,151.125 Q549.9063,150.625 549.2188,149.5625 Q548.5313,148.4844 548.5313,147.2031 L548.5313,146.0469 Q548.5313,144.7188 549.1406,143.5781 Q549.7656,142.4219 550.8594,141.8125 Q551.9531,141.1875 553.1875,141.1875 Q553.9219,141.1875 554.5625,141.3594 Q555.2188,141.5156 555.7656,141.875 Z " fill="#000000"/><text fill="#000000" font-family="sans-serif" font-size="12" lengthAdjust="spacing" textLength="134" x="567" y="150.9102">TestCalenderRepository</text><line style="stroke:#A80036;stroke-width:1.5;" x1="539" x2="703" y1="162" y2="162"/><line style="stroke:#A80036;stroke-width:1.5;" x1="539" x2="703" y1="170" y2="170"/><!--MD5=[997fadcf0f1516d354f9349bf13476a6]
class ExerciseAngleConstraint--><rect codeLine="18" fill="#FEFECE" filter="url(#f1uwkfrxt4tbrq)" height="48" id="ExerciseAngleConstraint" style="stroke:#A80036;stroke-width:1.5;" width="167" x="1009.5" y="1068"/><ellipse cx="1024.5" cy="1084" fill="#ADD1B2" rx="11" ry="11" style="stroke:#A80036;stroke-width:1.0;"/><path d="M1027.2656,1079.875 Q1027.4219,1079.6563 1027.6094,1079.5469 Q1027.7969,1079.4375 1028.0156,1079.4375 Q1028.3906,1079.4375 1028.625,1079.7031 Q1028.8594,1079.9531 1028.8594,1080.5625 L1028.8594,1082.0156 Q1028.8594,1082.625 1028.625,1082.8906 Q1028.3906,1083.1563 1028.0156,1083.1563 Q1027.6719,1083.1563 1027.4688,1082.9531 Q1027.2656,1082.7656 1027.1563,1082.25 Q1027.1094,1081.8906 1026.9219,1081.7031 Q1026.5938,1081.3281 1025.9844,1081.1094 Q1025.375,1080.8906 1024.75,1080.8906 Q1023.9844,1080.8906 1023.3438,1081.2188 Q1022.7188,1081.5469 1022.2188,1082.2969 Q1021.7344,1083.0469 1021.7344,1084.0781 L1021.7344,1085.1719 Q1021.7344,1086.4063 1022.625,1087.2344 Q1023.5156,1088.0469 1025.1094,1088.0469 Q1026.0469,1088.0469 1026.7031,1087.7969 Q1027.0938,1087.6406 1027.5156,1087.2031 Q1027.7813,1086.9375 1027.9219,1086.8594 Q1028.0781,1086.7813 1028.2813,1086.7813 Q1028.6094,1086.7813 1028.8594,1087.0469 Q1029.125,1087.2969 1029.125,1087.6406 Q1029.125,1087.9844 1028.7813,1088.3906 Q1028.2813,1088.9688 1027.4844,1089.2969 Q1026.4063,1089.75 1025.1094,1089.75 Q1023.5938,1089.75 1022.3906,1089.125 Q1021.4063,1088.625 1020.7188,1087.5625 Q1020.0313,1086.4844 1020.0313,1085.2031 L1020.0313,1084.0469 Q1020.0313,1082.7188 1020.6406,1081.5781 Q1021.2656,1080.4219 1022.3594,1079.8125 Q1023.4531,1079.1875 1024.6875,1079.1875 Q1025.4219,1079.1875 1026.0625,1079.3594 Q1026.7188,1079.5156 1027.2656,1079.875 Z " fill="#000000"/><text fill="#000000" font-family="sans-serif" font-size="12" lengthAdjust="spacing" textLength="135" x="1038.5" y="1088.9102">ExerciseAngleConstraint</text><line style="stroke:#A80036;stroke-width:1.5;" x1="1010.5" x2="1175.5" y1="1100" y2="1100"/><line style="stroke:#A80036;stroke-width:1.5;" x1="1010.5" x2="1175.5" y1="1108" y2="1108"/><!--MD5=[1b8636a4639b54d98a55f7f36a2409b9]
class ExerciseDetector--><rect codeLine="19" fill="#FEFECE" filter="url(#f1uwkfrxt4tbrq)" height="48" id="ExerciseDetector" style="stroke:#A80036;stroke-width:1.5;" width="125" x="805.5" y="985"/><ellipse cx="820.5" cy="1001" fill="#B4A7E5" rx="11" ry="11" style="stroke:#A80036;stroke-width:1.0;"/><path d="M821.4531,997.6406 L821.4531,1004.2969 L823.1719,1004.2969 Q823.7813,1004.2969 824.0469,1004.5313 Q824.3125,1004.7656 824.3125,1005.1563 Q824.3125,1005.5313 824.0469,1005.7656 Q823.7813,1006 823.1719,1006 L818.0313,1006 Q817.4219,1006 817.1563,1005.7656 Q816.8906,1005.5313 816.8906,1005.1406 Q816.8906,1004.7656 817.1563,1004.5313 Q817.4219,1004.2969 818.0313,1004.2969 L819.75,1004.2969 L819.75,997.6406 L818.0313,997.6406 Q817.4219,997.6406 817.1563,997.4063 Q816.8906,997.1719 816.8906,996.7813 Q816.8906,996.4063 817.1563,996.1719 Q817.4219,995.9375 818.0313,995.9375 L823.1719,995.9375 Q823.7813,995.9375 824.0469,996.1719 Q824.3125,996.4063 824.3125,996.7813 Q824.3125,997.1719 824.0469,997.4063 Q823.7813,997.6406 823.1719,997.6406 L821.4531,997.6406 Z " fill="#000000"/><text fill="#000000" font-family="sans-serif" font-size="12" font-style="italic" lengthAdjust="spacing" textLength="93" x="834.5" y="1005.9102">ExerciseDetector</text><line style="stroke:#A80036;stroke-width:1.5;" x1="806.5" x2="929.5" y1="1017" y2="1017"/><line style="stroke:#A80036;stroke-width:1.5;" x1="806.5" x2="929.5" y1="1025" y2="1025"/><!--MD5=[0198e2688a4a486d082f1574ee5f48ce]
class ExercisePoseConstraint--><rect codeLine="20" fill="#FEFECE" filter="url(#f1uwkfrxt4tbrq)" height="48" id="ExercisePoseConstraint" style="stroke:#A80036;stroke-width:1.5;" width="163" x="786.5" y="1068"/><ellipse cx="801.5" cy="1084" fill="#B4A7E5" rx="11" ry="11" style="stroke:#A80036;stroke-width:1.0;"/><path d="M802.4531,1080.6406 L802.4531,1087.2969 L804.1719,1087.2969 Q804.7813,1087.2969 805.0469,1087.5313 Q805.3125,1087.7656 805.3125,1088.1563 Q805.3125,1088.5313 805.0469,1088.7656 Q804.7813,1089 804.1719,1089 L799.0313,1089 Q798.4219,1089 798.1563,1088.7656 Q797.8906,1088.5313 797.8906,1088.1406 Q797.8906,1087.7656 798.1563,1087.5313 Q798.4219,1087.2969 799.0313,1087.2969 L800.75,1087.2969 L800.75,1080.6406 L799.0313,1080.6406 Q798.4219,1080.6406 798.1563,1080.4063 Q797.8906,1080.1719 797.8906,1079.7813 Q797.8906,1079.4063 798.1563,1079.1719 Q798.4219,1078.9375 799.0313,1078.9375 L804.1719,1078.9375 Q804.7813,1078.9375 805.0469,1079.1719 Q805.3125,1079.4063 805.3125,1079.7813 Q805.3125,1080.1719 805.0469,1080.4063 Q804.7813,1080.6406 804.1719,1080.6406 L802.4531,1080.6406 Z " fill="#000000"/><text fill="#000000" font-family="sans-serif" font-size="12" font-style="italic" lengthAdjust="spacing" textLength="131" x="815.5" y="1088.9102">ExercisePoseConstraint</text><line style="stroke:#A80036;stroke-width:1.5;" x1="787.5" x2="948.5" y1="1100" y2="1100"/><line style="stroke:#A80036;stroke-width:1.5;" x1="787.5" x2="948.5" y1="1108" y2="1108"/><!--MD5=[74c4f2fc6ace641bc187b445bd629313]
class ExercisePoseConstraints--><rect codeLine="21" fill="#FEFECE" filter="url(#f1uwkfrxt4tbrq)" height="48" id="ExercisePoseConstraints" style="stroke:#A80036;stroke-width:1.5;" width="172" x="535" y="985"/><ellipse cx="550" cy="1001" fill="#ADD1B2" rx="11" ry="11" style="stroke:#A80036;stroke-width:1.0;"/><path d="M552.7656,996.875 Q552.9219,996.6563 553.1094,996.5469 Q553.2969,996.4375 553.5156,996.4375 Q553.8906,996.4375 554.125,996.7031 Q554.3594,996.9531 554.3594,997.5625 L554.3594,999.0156 Q554.3594,999.625 554.125,999.8906 Q553.8906,1000.1563 553.5156,1000.1563 Q553.1719,1000.1563 552.9688,999.9531 Q552.7656,999.7656 552.6563,999.25 Q552.6094,998.8906 552.4219,998.7031 Q552.0938,998.3281 551.4844,998.1094 Q550.875,997.8906 550.25,997.8906 Q549.4844,997.8906 548.8438,998.2188 Q548.2188,998.5469 547.7188,999.2969 Q547.2344,1000.0469 547.2344,1001.0781 L547.2344,1002.1719 Q547.2344,1003.4063 548.125,1004.2344 Q549.0156,1005.0469 550.6094,1005.0469 Q551.5469,1005.0469 552.2031,1004.7969 Q552.5938,1004.6406 553.0156,1004.2031 Q553.2813,1003.9375 553.4219,1003.8594 Q553.5781,1003.7813 553.7813,1003.7813 Q554.1094,1003.7813 554.3594,1004.0469 Q554.625,1004.2969 554.625,1004.6406 Q554.625,1004.9844 554.2813,1005.3906 Q553.7813,1005.9688 552.9844,1006.2969 Q551.9063,1006.75 550.6094,1006.75 Q549.0938,1006.75 547.8906,1006.125 Q546.9063,1005.625 546.2188,1004.5625 Q545.5313,1003.4844 545.5313,1002.2031 L545.5313,1001.0469 Q545.5313,999.7188 546.1406,998.5781 Q546.7656,997.4219 547.8594,996.8125 Q548.9531,996.1875 550.1875,996.1875 Q550.9219,996.1875 551.5625,996.3594 Q552.2188,996.5156 552.7656,996.875 Z " fill="#000000"/><text fill="#000000" font-family="sans-serif" font-size="12" lengthAdjust="spacing" textLength="140" x="564" y="1005.9102">ExercisePoseConstraints</text><line style="stroke:#A80036;stroke-width:1.5;" x1="536" x2="706" y1="1017" y2="1017"/><line style="stroke:#A80036;stroke-width:1.5;" x1="536" x2="706" y1="1025" y2="1025"/><!--MD5=[ca7fae9f1248dabd899b9cfc84afabfd]
class ExerciseUtils--><rect codeLine="22" fill="#FEFECE" filter="url(#f1uwkfrxt4tbrq)" height="48" id="ExerciseUtils" style="stroke:#A80036;stroke-width:1.5;" width="104" x="569" y="1068"/><ellipse cx="584" cy="1084" fill="#ADD1B2" rx="11" ry="11" style="stroke:#A80036;stroke-width:1.0;"/><path d="M586.7656,1079.875 Q586.9219,1079.6563 587.1094,1079.5469 Q587.2969,1079.4375 587.5156,1079.4375 Q587.8906,1079.4375 588.125,1079.7031 Q588.3594,1079.9531 588.3594,1080.5625 L588.3594,1082.0156 Q588.3594,1082.625 588.125,1082.8906 Q587.8906,1083.1563 587.5156,1083.1563 Q587.1719,1083.1563 586.9688,1082.9531 Q586.7656,1082.7656 586.6563,1082.25 Q586.6094,1081.8906 586.4219,1081.7031 Q586.0938,1081.3281 585.4844,1081.1094 Q584.875,1080.8906 584.25,1080.8906 Q583.4844,1080.8906 582.8438,1081.2188 Q582.2188,1081.5469 581.7188,1082.2969 Q581.2344,1083.0469 581.2344,1084.0781 L581.2344,1085.1719 Q581.2344,1086.4063 582.125,1087.2344 Q583.0156,1088.0469 584.6094,1088.0469 Q585.5469,1088.0469 586.2031,1087.7969 Q586.5938,1087.6406 587.0156,1087.2031 Q587.2813,1086.9375 587.4219,1086.8594 Q587.5781,1086.7813 587.7813,1086.7813 Q588.1094,1086.7813 588.3594,1087.0469 Q588.625,1087.2969 588.625,1087.6406 Q588.625,1087.9844 588.2813,1088.3906 Q587.7813,1088.9688 586.9844,1089.2969 Q585.9063,1089.75 584.6094,1089.75 Q583.0938,1089.75 581.8906,1089.125 Q580.9063,1088.625 580.2188,1087.5625 Q579.5313,1086.4844 579.5313,1085.2031 L579.5313,1084.0469 Q579.5313,1082.7188 580.1406,1081.5781 Q580.7656,1080.4219 581.8594,1079.8125 Q582.9531,1079.1875 584.1875,1079.1875 Q584.9219,1079.1875 585.5625,1079.3594 Q586.2188,1079.5156 586.7656,1079.875 Z " fill="#000000"/><text fill="#000000" font-family="sans-serif" font-size="12" lengthAdjust="spacing" textLength="72" x="598" y="1088.9102">ExerciseUtils</text><line style="stroke:#A80036;stroke-width:1.5;" x1="570" x2="672" y1="1100" y2="1100"/><line style="stroke:#A80036;stroke-width:1.5;" x1="570" x2="672" y1="1108" y2="1108"/><!--MD5=[25ce0cc84f9df5faedf184ef26e4ea5e]
class SquatExerciseDetector--><rect codeLine="23" fill="#FEFECE" filter="url(#f1uwkfrxt4tbrq)" height="48" id="SquatExerciseDetector" style="stroke:#A80036;stroke-width:1.5;" width="157" x="1014.5" y="985"/><ellipse cx="1029.5" cy="1001" fill="#ADD1B2" rx="11" ry="11" style="stroke:#A80036;stroke-width:1.0;"/><path d="M1032.2656,996.875 Q1032.4219,996.6563 1032.6094,996.5469 Q1032.7969,996.4375 1033.0156,996.4375 Q1033.3906,996.4375 1033.625,996.7031 Q1033.8594,996.9531 1033.8594,997.5625 L1033.8594,999.0156 Q1033.8594,999.625 1033.625,999.8906 Q1033.3906,1000.1563 1033.0156,1000.1563 Q1032.6719,1000.1563 1032.4688,999.9531 Q1032.2656,999.7656 1032.1563,999.25 Q1032.1094,998.8906 1031.9219,998.7031 Q1031.5938,998.3281 1030.9844,998.1094 Q1030.375,997.8906 1029.75,997.8906 Q1028.9844,997.8906 1028.3438,998.2188 Q1027.7188,998.5469 1027.2188,999.2969 Q1026.7344,1000.0469 1026.7344,1001.0781 L1026.7344,1002.1719 Q1026.7344,1003.4063 1027.625,1004.2344 Q1028.5156,1005.0469 1030.1094,1005.0469 Q1031.0469,1005.0469 1031.7031,1004.7969 Q1032.0938,1004.6406 1032.5156,1004.2031 Q1032.7813,1003.9375 1032.9219,1003.8594 Q1033.0781,1003.7813 1033.2813,1003.7813 Q1033.6094,1003.7813 1033.8594,1004.0469 Q1034.125,1004.2969 1034.125,1004.6406 Q1034.125,1004.9844 1033.7813,1005.3906 Q1033.2813,1005.9688 1032.4844,1006.2969 Q1031.4063,1006.75 1030.1094,1006.75 Q1028.5938,1006.75 1027.3906,1006.125 Q1026.4063,1005.625 1025.7188,1004.5625 Q1025.0313,1003.4844 1025.0313,1002.2031 L1025.0313,1001.0469 Q1025.0313,999.7188 1025.6406,998.5781 Q1026.2656,997.4219 1027.3594,996.8125 Q1028.4531,996.1875 1029.6875,996.1875 Q1030.4219,996.1875 1031.0625,996.3594 Q1031.7188,996.5156 1032.2656,996.875 Z " fill="#000000"/><text fill="#000000" font-family="sans-serif" font-size="12" lengthAdjust="spacing" textLength="125" x="1043.5" y="1005.9102">SquatExerciseDetector</text><line style="stroke:#A80036;stroke-width:1.5;" x1="1015.5" x2="1170.5" y1="1017" y2="1017"/><line style="stroke:#A80036;stroke-width:1.5;" x1="1015.5" x2="1170.5" y1="1025" y2="1025"/><!--MD5=[74272f074246a40b8f4f842efb2b80c1]
class WorkoutType--><rect codeLine="24" fill="#FEFECE" filter="url(#f1uwkfrxt4tbrq)" height="48" id="WorkoutType" style="stroke:#A80036;stroke-width:1.5;" width="103" x="569.5" y="1151"/><ellipse cx="584.5" cy="1167" fill="#EB937F" rx="11" ry="11" style="stroke:#A80036;stroke-width:1.0;"/><path d="M583.3594,1167.7969 L583.3594,1170.2969 L587.6875,1170.2969 L587.6875,1169.375 Q587.6875,1168.7656 587.9219,1168.5 Q588.1719,1168.2344 588.5469,1168.2344 Q588.9219,1168.2344 589.1563,1168.5 Q589.3906,1168.7656 589.3906,1169.375 L589.3906,1172 L581.3906,1172 Q580.7656,1172 580.5,1171.7656 Q580.25,1171.5313 580.25,1171.1406 Q580.25,1170.7656 580.5156,1170.5313 Q580.7813,1170.2969 581.3906,1170.2969 L581.6563,1170.2969 L581.6563,1163.6406 L581.3906,1163.6406 Q580.7656,1163.6406 580.5,1163.4063 Q580.25,1163.1719 580.25,1162.7813 Q580.25,1162.4063 580.5,1162.1719 Q580.7656,1161.9375 581.3906,1161.9375 L589.0156,1161.9375 L589.0156,1164.5313 Q589.0156,1165.1406 588.7813,1165.4063 Q588.5625,1165.6563 588.1719,1165.6563 Q587.7969,1165.6563 587.5625,1165.4063 Q587.3281,1165.1406 587.3281,1164.5313 L587.3281,1163.6406 L583.3594,1163.6406 L583.3594,1166.0938 L584.8438,1166.0938 Q584.8438,1165.4375 584.9688,1165.25 Q585.2344,1164.8438 585.7031,1164.8438 Q586.0781,1164.8438 586.3125,1165.1094 Q586.5469,1165.3594 586.5469,1165.9688 L586.5469,1167.9375 Q586.5469,1168.4844 586.4219,1168.6719 Q586.1563,1169.0625 585.7031,1169.0625 Q585.2344,1169.0625 584.9688,1168.6563 Q584.8438,1168.4688 584.8438,1167.7969 L583.3594,1167.7969 Z " fill="#000000"/><text fill="#000000" font-family="sans-serif" font-size="12" lengthAdjust="spacing" textLength="71" x="598.5" y="1171.9102">WorkoutType</text><line style="stroke:#A80036;stroke-width:1.5;" x1="570.5" x2="671.5" y1="1183" y2="1183"/><line style="stroke:#A80036;stroke-width:1.5;" x1="570.5" x2="671.5" y1="1191" y2="1191"/><!--MD5=[ab03260e0743469785225c40f3c615fa]
class ExerciseCameraFragment--><rect codeLine="33" fill="#FEFECE" filter="url(#f1uwkfrxt4tbrq)" height="48" id="ExerciseCameraFragment" style="stroke:#A80036;stroke-width:1.5;" width="177" x="532.5" y="861"/><ellipse cx="547.5" cy="877" fill="#ADD1B2" rx="11" ry="11" style="stroke:#A80036;stroke-width:1.0;"/><path d="M550.2656,872.875 Q550.4219,872.6563 550.6094,872.5469 Q550.7969,872.4375 551.0156,872.4375 Q551.3906,872.4375 551.625,872.7031 Q551.8594,872.9531 551.8594,873.5625 L551.8594,875.0156 Q551.8594,875.625 551.625,875.8906 Q551.3906,876.1563 551.0156,876.1563 Q550.6719,876.1563 550.4688,875.9531 Q550.2656,875.7656 550.1563,875.25 Q550.1094,874.8906 549.9219,874.7031 Q549.5938,874.3281 548.9844,874.1094 Q548.375,873.8906 547.75,873.8906 Q546.9844,873.8906 546.3438,874.2188 Q545.7188,874.5469 545.2188,875.2969 Q544.7344,876.0469 544.7344,877.0781 L544.7344,878.1719 Q544.7344,879.4063 545.625,880.2344 Q546.5156,881.0469 548.1094,881.0469 Q549.0469,881.0469 549.7031,880.7969 Q550.0938,880.6406 550.5156,880.2031 Q550.7813,879.9375 550.9219,879.8594 Q551.0781,879.7813 551.2813,879.7813 Q551.6094,879.7813 551.8594,880.0469 Q552.125,880.2969 552.125,880.6406 Q552.125,880.9844 551.7813,881.3906 Q551.2813,881.9688 550.4844,882.2969 Q549.4063,882.75 548.1094,882.75 Q546.5938,882.75 545.3906,882.125 Q544.4063,881.625 543.7188,880.5625 Q543.0313,879.4844 543.0313,878.2031 L543.0313,877.0469 Q543.0313,875.7188 543.6406,874.5781 Q544.2656,873.4219 545.3594,872.8125 Q546.4531,872.1875 547.6875,872.1875 Q548.4219,872.1875 549.0625,872.3594 Q549.7188,872.5156 550.2656,872.875 Z " fill="#000000"/><text fill="#000000" font-family="sans-serif" font-size="12" lengthAdjust="spacing" textLength="145" x="561.5" y="881.9102">ExerciseCameraFragment</text><line style="stroke:#A80036;stroke-width:1.5;" x1="533.5" x2="708.5" y1="893" y2="893"/><line style="stroke:#A80036;stroke-width:1.5;" x1="533.5" x2="708.5" y1="901" y2="901"/><!--MD5=[4c20487f535b86697d13d0250550d573]
class HomeFragment--><rect codeLine="34" fill="#FEFECE" filter="url(#f1uwkfrxt4tbrq)" height="48" id="HomeFragment" style="stroke:#A80036;stroke-width:1.5;" width="119" x="561.5" y="778"/><ellipse cx="576.5" cy="794" fill="#ADD1B2" rx="11" ry="11" style="stroke:#A80036;stroke-width:1.0;"/><path d="M579.2656,789.875 Q579.4219,789.6563 579.6094,789.5469 Q579.7969,789.4375 580.0156,789.4375 Q580.3906,789.4375 580.625,789.7031 Q580.8594,789.9531 580.8594,790.5625 L580.8594,792.0156 Q580.8594,792.625 580.625,792.8906 Q580.3906,793.1563 580.0156,793.1563 Q579.6719,793.1563 579.4688,792.9531 Q579.2656,792.7656 579.1563,792.25 Q579.1094,791.8906 578.9219,791.7031 Q578.5938,791.3281 577.9844,791.1094 Q577.375,790.8906 576.75,790.8906 Q575.9844,790.8906 575.3438,791.2188 Q574.7188,791.5469 574.2188,792.2969 Q573.7344,793.0469 573.7344,794.0781 L573.7344,795.1719 Q573.7344,796.4063 574.625,797.2344 Q575.5156,798.0469 577.1094,798.0469 Q578.0469,798.0469 578.7031,797.7969 Q579.0938,797.6406 579.5156,797.2031 Q579.7813,796.9375 579.9219,796.8594 Q580.0781,796.7813 580.2813,796.7813 Q580.6094,796.7813 580.8594,797.0469 Q581.125,797.2969 581.125,797.6406 Q581.125,797.9844 580.7813,798.3906 Q580.2813,798.9688 579.4844,799.2969 Q578.4063,799.75 577.1094,799.75 Q575.5938,799.75 574.3906,799.125 Q573.4063,798.625 572.7188,797.5625 Q572.0313,796.4844 572.0313,795.2031 L572.0313,794.0469 Q572.0313,792.7188 572.6406,791.5781 Q573.2656,790.4219 574.3594,789.8125 Q575.4531,789.1875 576.6875,789.1875 Q577.4219,789.1875 578.0625,789.3594 Q578.7188,789.5156 579.2656,789.875 Z " fill="#000000"/><text fill="#000000" font-family="sans-serif" font-size="12" lengthAdjust="spacing" textLength="87" x="590.5" y="798.9102">HomeFragment</text><line style="stroke:#A80036;stroke-width:1.5;" x1="562.5" x2="679.5" y1="810" y2="810"/><line style="stroke:#A80036;stroke-width:1.5;" x1="562.5" x2="679.5" y1="818" y2="818"/><!--MD5=[b64d92e88298bb8a9256174e350ab439]
class NotficiationsFragment--><rect codeLine="35" fill="#FEFECE" filter="url(#f1uwkfrxt4tbrq)" height="48" id="NotficiationsFragment" style="stroke:#A80036;stroke-width:1.5;" width="153" x="544.5" y="695"/><ellipse cx="559.5" cy="711" fill="#ADD1B2" rx="11" ry="11" style="stroke:#A80036;stroke-width:1.0;"/><path d="M562.2656,706.875 Q562.4219,706.6563 562.6094,706.5469 Q562.7969,706.4375 563.0156,706.4375 Q563.3906,706.4375 563.625,706.7031 Q563.8594,706.9531 563.8594,707.5625 L563.8594,709.0156 Q563.8594,709.625 563.625,709.8906 Q563.3906,710.1563 563.0156,710.1563 Q562.6719,710.1563 562.4688,709.9531 Q562.2656,709.7656 562.1563,709.25 Q562.1094,708.8906 561.9219,708.7031 Q561.5938,708.3281 560.9844,708.1094 Q560.375,707.8906 559.75,707.8906 Q558.9844,707.8906 558.3438,708.2188 Q557.7188,708.5469 557.2188,709.2969 Q556.7344,710.0469 556.7344,711.0781 L556.7344,712.1719 Q556.7344,713.4063 557.625,714.2344 Q558.5156,715.0469 560.1094,715.0469 Q561.0469,715.0469 561.7031,714.7969 Q562.0938,714.6406 562.5156,714.2031 Q562.7813,713.9375 562.9219,713.8594 Q563.0781,713.7813 563.2813,713.7813 Q563.6094,713.7813 563.8594,714.0469 Q564.125,714.2969 564.125,714.6406 Q564.125,714.9844 563.7813,715.3906 Q563.2813,715.9688 562.4844,716.2969 Q561.4063,716.75 560.1094,716.75 Q558.5938,716.75 557.3906,716.125 Q556.4063,715.625 555.7188,714.5625 Q555.0313,713.4844 555.0313,712.2031 L555.0313,711.0469 Q555.0313,709.7188 555.6406,708.5781 Q556.2656,707.4219 557.3594,706.8125 Q558.4531,706.1875 559.6875,706.1875 Q560.4219,706.1875 561.0625,706.3594 Q561.7188,706.5156 562.2656,706.875 Z " fill="#000000"/><text fill="#000000" font-family="sans-serif" font-size="12" lengthAdjust="spacing" textLength="121" x="573.5" y="715.9102">NotficiationsFragment</text><line style="stroke:#A80036;stroke-width:1.5;" x1="545.5" x2="696.5" y1="727" y2="727"/><line style="stroke:#A80036;stroke-width:1.5;" x1="545.5" x2="696.5" y1="735" y2="735"/><!--MD5=[4ded613f88ec8f0e6cda58286b44e711]
class ProfileFragment--><rect codeLine="36" fill="#FEFECE" filter="url(#f1uwkfrxt4tbrq)" height="48" id="ProfileFragment" style="stroke:#A80036;stroke-width:1.5;" width="120" x="808" y="778"/><ellipse cx="823" cy="794" fill="#ADD1B2" rx="11" ry="11" style="stroke:#A80036;stroke-width:1.0;"/><path d="M825.7656,789.875 Q825.9219,789.6563 826.1094,789.5469 Q826.2969,789.4375 826.5156,789.4375 Q826.8906,789.4375 827.125,789.7031 Q827.3594,789.9531 827.3594,790.5625 L827.3594,792.0156 Q827.3594,792.625 827.125,792.8906 Q826.8906,793.1563 826.5156,793.1563 Q826.1719,793.1563 825.9688,792.9531 Q825.7656,792.7656 825.6563,792.25 Q825.6094,791.8906 825.4219,791.7031 Q825.0938,791.3281 824.4844,791.1094 Q823.875,790.8906 823.25,790.8906 Q822.4844,790.8906 821.8438,791.2188 Q821.2188,791.5469 820.7188,792.2969 Q820.2344,793.0469 820.2344,794.0781 L820.2344,795.1719 Q820.2344,796.4063 821.125,797.2344 Q822.0156,798.0469 823.6094,798.0469 Q824.5469,798.0469 825.2031,797.7969 Q825.5938,797.6406 826.0156,797.2031 Q826.2813,796.9375 826.4219,796.8594 Q826.5781,796.7813 826.7813,796.7813 Q827.1094,796.7813 827.3594,797.0469 Q827.625,797.2969 827.625,797.6406 Q827.625,797.9844 827.2813,798.3906 Q826.7813,798.9688 825.9844,799.2969 Q824.9063,799.75 823.6094,799.75 Q822.0938,799.75 820.8906,799.125 Q819.9063,798.625 819.2188,797.5625 Q818.5313,796.4844 818.5313,795.2031 L818.5313,794.0469 Q818.5313,792.7188 819.1406,791.5781 Q819.7656,790.4219 820.8594,789.8125 Q821.9531,789.1875 823.1875,789.1875 Q823.9219,789.1875 824.5625,789.3594 Q825.2188,789.5156 825.7656,789.875 Z " fill="#000000"/><text fill="#000000" font-family="sans-serif" font-size="12" lengthAdjust="spacing" textLength="88" x="837" y="798.9102">ProfileFragment</text><line style="stroke:#A80036;stroke-width:1.5;" x1="809" x2="927" y1="810" y2="810"/><line style="stroke:#A80036;stroke-width:1.5;" x1="809" x2="927" y1="818" y2="818"/><!--MD5=[a76e241e044adfbf5cfab0e162a00320]
class StatsFragment--><rect codeLine="37" fill="#FEFECE" filter="url(#f1uwkfrxt4tbrq)" height="48" id="StatsFragment" style="stroke:#A80036;stroke-width:1.5;" width="113" x="811.5" y="695"/><ellipse cx="826.5" cy="711" fill="#ADD1B2" rx="11" ry="11" style="stroke:#A80036;stroke-width:1.0;"/><path d="M829.2656,706.875 Q829.4219,706.6563 829.6094,706.5469 Q829.7969,706.4375 830.0156,706.4375 Q830.3906,706.4375 830.625,706.7031 Q830.8594,706.9531 830.8594,707.5625 L830.8594,709.0156 Q830.8594,709.625 830.625,709.8906 Q830.3906,710.1563 830.0156,710.1563 Q829.6719,710.1563 829.4688,709.9531 Q829.2656,709.7656 829.1563,709.25 Q829.1094,708.8906 828.9219,708.7031 Q828.5938,708.3281 827.9844,708.1094 Q827.375,707.8906 826.75,707.8906 Q825.9844,707.8906 825.3438,708.2188 Q824.7188,708.5469 824.2188,709.2969 Q823.7344,710.0469 823.7344,711.0781 L823.7344,712.1719 Q823.7344,713.4063 824.625,714.2344 Q825.5156,715.0469 827.1094,715.0469 Q828.0469,715.0469 828.7031,714.7969 Q829.0938,714.6406 829.5156,714.2031 Q829.7813,713.9375 829.9219,713.8594 Q830.0781,713.7813 830.2813,713.7813 Q830.6094,713.7813 830.8594,714.0469 Q831.125,714.2969 831.125,714.6406 Q831.125,714.9844 830.7813,715.3906 Q830.2813,715.9688 829.4844,716.2969 Q828.4063,716.75 827.1094,716.75 Q825.5938,716.75 824.3906,716.125 Q823.4063,715.625 822.7188,714.5625 Q822.0313,713.4844 822.0313,712.2031 L822.0313,711.0469 Q822.0313,709.7188 822.6406,708.5781 Q823.2656,707.4219 824.3594,706.8125 Q825.4531,706.1875 826.6875,706.1875 Q827.4219,706.1875 828.0625,706.3594 Q828.7188,706.5156 829.2656,706.875 Z " fill="#000000"/><text fill="#000000" font-family="sans-serif" font-size="12" lengthAdjust="spacing" textLength="81" x="840.5" y="715.9102">StatsFragment</text><line style="stroke:#A80036;stroke-width:1.5;" x1="812.5" x2="923.5" y1="727" y2="727"/><line style="stroke:#A80036;stroke-width:1.5;" x1="812.5" x2="923.5" y1="735" y2="735"/><!--MD5=[14ca3e4016ddf05437fd95de298b3cac]
class CalenderFragment--><rect codeLine="29" fill="#FEFECE" filter="url(#f1uwkfrxt4tbrq)" height="48" id="CalenderFragment" style="stroke:#A80036;stroke-width:1.5;" width="136" x="800" y="322"/><ellipse cx="815" cy="338" fill="#ADD1B2" rx="11" ry="11" style="stroke:#A80036;stroke-width:1.0;"/><path d="M817.7656,333.875 Q817.9219,333.6563 818.1094,333.5469 Q818.2969,333.4375 818.5156,333.4375 Q818.8906,333.4375 819.125,333.7031 Q819.3594,333.9531 819.3594,334.5625 L819.3594,336.0156 Q819.3594,336.625 819.125,336.8906 Q818.8906,337.1563 818.5156,337.1563 Q818.1719,337.1563 817.9688,336.9531 Q817.7656,336.7656 817.6563,336.25 Q817.6094,335.8906 817.4219,335.7031 Q817.0938,335.3281 816.4844,335.1094 Q815.875,334.8906 815.25,334.8906 Q814.4844,334.8906 813.8438,335.2188 Q813.2188,335.5469 812.7188,336.2969 Q812.2344,337.0469 812.2344,338.0781 L812.2344,339.1719 Q812.2344,340.4063 813.125,341.2344 Q814.0156,342.0469 815.6094,342.0469 Q816.5469,342.0469 817.2031,341.7969 Q817.5938,341.6406 818.0156,341.2031 Q818.2813,340.9375 818.4219,340.8594 Q818.5781,340.7813 818.7813,340.7813 Q819.1094,340.7813 819.3594,341.0469 Q819.625,341.2969 819.625,341.6406 Q819.625,341.9844 819.2813,342.3906 Q818.7813,342.9688 817.9844,343.2969 Q816.9063,343.75 815.6094,343.75 Q814.0938,343.75 812.8906,343.125 Q811.9063,342.625 811.2188,341.5625 Q810.5313,340.4844 810.5313,339.2031 L810.5313,338.0469 Q810.5313,336.7188 811.1406,335.5781 Q811.7656,334.4219 812.8594,333.8125 Q813.9531,333.1875 815.1875,333.1875 Q815.9219,333.1875 816.5625,333.3594 Q817.2188,333.5156 817.7656,333.875 Z " fill="#000000"/><text fill="#000000" font-family="sans-serif" font-size="12" lengthAdjust="spacing" textLength="104" x="829" y="342.9102">CalenderFragment</text><line style="stroke:#A80036;stroke-width:1.5;" x1="801" x2="935" y1="354" y2="354"/><line style="stroke:#A80036;stroke-width:1.5;" x1="801" x2="935" y1="362" y2="362"/><!--MD5=[777495f949ef2cfb87cd50770db1b743]
class DayViewContainer--><rect codeLine="30" fill="#FEFECE" filter="url(#f1uwkfrxt4tbrq)" height="48" id="DayViewContainer" style="stroke:#A80036;stroke-width:1.5;" width="133" x="554.5" y="322"/><ellipse cx="569.5" cy="338" fill="#ADD1B2" rx="11" ry="11" style="stroke:#A80036;stroke-width:1.0;"/><path d="M572.2656,333.875 Q572.4219,333.6563 572.6094,333.5469 Q572.7969,333.4375 573.0156,333.4375 Q573.3906,333.4375 573.625,333.7031 Q573.8594,333.9531 573.8594,334.5625 L573.8594,336.0156 Q573.8594,336.625 573.625,336.8906 Q573.3906,337.1563 573.0156,337.1563 Q572.6719,337.1563 572.4688,336.9531 Q572.2656,336.7656 572.1563,336.25 Q572.1094,335.8906 571.9219,335.7031 Q571.5938,335.3281 570.9844,335.1094 Q570.375,334.8906 569.75,334.8906 Q568.9844,334.8906 568.3438,335.2188 Q567.7188,335.5469 567.2188,336.2969 Q566.7344,337.0469 566.7344,338.0781 L566.7344,339.1719 Q566.7344,340.4063 567.625,341.2344 Q568.5156,342.0469 570.1094,342.0469 Q571.0469,342.0469 571.7031,341.7969 Q572.0938,341.6406 572.5156,341.2031 Q572.7813,340.9375 572.9219,340.8594 Q573.0781,340.7813 573.2813,340.7813 Q573.6094,340.7813 573.8594,341.0469 Q574.125,341.2969 574.125,341.6406 Q574.125,341.9844 573.7813,342.3906 Q573.2813,342.9688 572.4844,343.2969 Q571.4063,343.75 570.1094,343.75 Q568.5938,343.75 567.3906,343.125 Q566.4063,342.625 565.7188,341.5625 Q565.0313,340.4844 565.0313,339.2031 L565.0313,338.0469 Q565.0313,336.7188 565.6406,335.5781 Q566.2656,334.4219 567.3594,333.8125 Q568.4531,333.1875 569.6875,333.1875 Q570.4219,333.1875 571.0625,333.3594 Q571.7188,333.5156 572.2656,333.875 Z " fill="#000000"/><text fill="#000000" font-family="sans-serif" font-size="12" lengthAdjust="spacing" textLength="101" x="583.5" y="342.9102">DayViewContainer</text><line style="stroke:#A80036;stroke-width:1.5;" x1="555.5" x2="686.5" y1="354" y2="354"/><line style="stroke:#A80036;stroke-width:1.5;" x1="555.5" x2="686.5" y1="362" y2="362"/><!--MD5=[7bb736544733ea63464c2313623143f7]
class MonthViewContainer--><rect codeLine="31" fill="#FEFECE" filter="url(#f1uwkfrxt4tbrq)" height="48" id="MonthViewContainer" style="stroke:#A80036;stroke-width:1.5;" width="145" x="548.5" y="405"/><ellipse cx="563.5" cy="421" fill="#ADD1B2" rx="11" ry="11" style="stroke:#A80036;stroke-width:1.0;"/><path d="M566.2656,416.875 Q566.4219,416.6563 566.6094,416.5469 Q566.7969,416.4375 567.0156,416.4375 Q567.3906,416.4375 567.625,416.7031 Q567.8594,416.9531 567.8594,417.5625 L567.8594,419.0156 Q567.8594,419.625 567.625,419.8906 Q567.3906,420.1563 567.0156,420.1563 Q566.6719,420.1563 566.4688,419.9531 Q566.2656,419.7656 566.1563,419.25 Q566.1094,418.8906 565.9219,418.7031 Q565.5938,418.3281 564.9844,418.1094 Q564.375,417.8906 563.75,417.8906 Q562.9844,417.8906 562.3438,418.2188 Q561.7188,418.5469 561.2188,419.2969 Q560.7344,420.0469 560.7344,421.0781 L560.7344,422.1719 Q560.7344,423.4063 561.625,424.2344 Q562.5156,425.0469 564.1094,425.0469 Q565.0469,425.0469 565.7031,424.7969 Q566.0938,424.6406 566.5156,424.2031 Q566.7813,423.9375 566.9219,423.8594 Q567.0781,423.7813 567.2813,423.7813 Q567.6094,423.7813 567.8594,424.0469 Q568.125,424.2969 568.125,424.6406 Q568.125,424.9844 567.7813,425.3906 Q567.2813,425.9688 566.4844,426.2969 Q565.4063,426.75 564.1094,426.75 Q562.5938,426.75 561.3906,426.125 Q560.4063,425.625 559.7188,424.5625 Q559.0313,423.4844 559.0313,422.2031 L559.0313,421.0469 Q559.0313,419.7188 559.6406,418.5781 Q560.2656,417.4219 561.3594,416.8125 Q562.4531,416.1875 563.6875,416.1875 Q564.4219,416.1875 565.0625,416.3594 Q565.7188,416.5156 566.2656,416.875 Z " fill="#000000"/><text fill="#000000" font-family="sans-serif" font-size="12" lengthAdjust="spacing" textLength="113" x="577.5" y="425.9102">MonthViewContainer</text><line style="stroke:#A80036;stroke-width:1.5;" x1="549.5" x2="692.5" y1="437" y2="437"/><line style="stroke:#A80036;stroke-width:1.5;" x1="549.5" x2="692.5" y1="445" y2="445"/><!--MD5=[c99e4a13ca3f2c9a6a7d83550c6e825d]
class PlannedWorkoutSessionAdapter--><rect codeLine="40" fill="#FEFECE" filter="url(#f1uwkfrxt4tbrq)" height="48" id="PlannedWorkoutSessionAdapter" style="stroke:#A80036;stroke-width:1.5;" width="211" x="515.5" y="529"/><ellipse cx="530.5" cy="545" fill="#ADD1B2" rx="11" ry="11" style="stroke:#A80036;stroke-width:1.0;"/><path d="M533.2656,540.875 Q533.4219,540.6563 533.6094,540.5469 Q533.7969,540.4375 534.0156,540.4375 Q534.3906,540.4375 534.625,540.7031 Q534.8594,540.9531 534.8594,541.5625 L534.8594,543.0156 Q534.8594,543.625 534.625,543.8906 Q534.3906,544.1563 534.0156,544.1563 Q533.6719,544.1563 533.4688,543.9531 Q533.2656,543.7656 533.1563,543.25 Q533.1094,542.8906 532.9219,542.7031 Q532.5938,542.3281 531.9844,542.1094 Q531.375,541.8906 530.75,541.8906 Q529.9844,541.8906 529.3438,542.2188 Q528.7188,542.5469 528.2188,543.2969 Q527.7344,544.0469 527.7344,545.0781 L527.7344,546.1719 Q527.7344,547.4063 528.625,548.2344 Q529.5156,549.0469 531.1094,549.0469 Q532.0469,549.0469 532.7031,548.7969 Q533.0938,548.6406 533.5156,548.2031 Q533.7813,547.9375 533.9219,547.8594 Q534.0781,547.7813 534.2813,547.7813 Q534.6094,547.7813 534.8594,548.0469 Q535.125,548.2969 535.125,548.6406 Q535.125,548.9844 534.7813,549.3906 Q534.2813,549.9688 533.4844,550.2969 Q532.4063,550.75 531.1094,550.75 Q529.5938,550.75 528.3906,550.125 Q527.4063,549.625 526.7188,548.5625 Q526.0313,547.4844 526.0313,546.2031 L526.0313,545.0469 Q526.0313,543.7188 526.6406,542.5781 Q527.2656,541.4219 528.3594,540.8125 Q529.4531,540.1875 530.6875,540.1875 Q531.4219,540.1875 532.0625,540.3594 Q532.7188,540.5156 533.2656,540.875 Z " fill="#000000"/><text fill="#000000" font-family="sans-serif" font-size="12" lengthAdjust="spacing" textLength="179" x="544.5" y="549.9102">PlannedWorkoutSessionAdapter</text><line style="stroke:#A80036;stroke-width:1.5;" x1="516.5" x2="725.5" y1="561" y2="561"/><line style="stroke:#A80036;stroke-width:1.5;" x1="516.5" x2="725.5" y1="569" y2="569"/><!--MD5=[e1ada96a81ae3fb739841a521f73483a]
class WorkoutDayFragment--><rect codeLine="41" fill="#FEFECE" filter="url(#f1uwkfrxt4tbrq)" height="48" id="WorkoutDayFragment" style="stroke:#A80036;stroke-width:1.5;" width="151" x="792.5" y="571"/><ellipse cx="807.5" cy="587" fill="#ADD1B2" rx="11" ry="11" style="stroke:#A80036;stroke-width:1.0;"/><path d="M810.2656,582.875 Q810.4219,582.6563 810.6094,582.5469 Q810.7969,582.4375 811.0156,582.4375 Q811.3906,582.4375 811.625,582.7031 Q811.8594,582.9531 811.8594,583.5625 L811.8594,585.0156 Q811.8594,585.625 811.625,585.8906 Q811.3906,586.1563 811.0156,586.1563 Q810.6719,586.1563 810.4688,585.9531 Q810.2656,585.7656 810.1563,585.25 Q810.1094,584.8906 809.9219,584.7031 Q809.5938,584.3281 808.9844,584.1094 Q808.375,583.8906 807.75,583.8906 Q806.9844,583.8906 806.3438,584.2188 Q805.7188,584.5469 805.2188,585.2969 Q804.7344,586.0469 804.7344,587.0781 L804.7344,588.1719 Q804.7344,589.4063 805.625,590.2344 Q806.5156,591.0469 808.1094,591.0469 Q809.0469,591.0469 809.7031,590.7969 Q810.0938,590.6406 810.5156,590.2031 Q810.7813,589.9375 810.9219,589.8594 Q811.0781,589.7813 811.2813,589.7813 Q811.6094,589.7813 811.8594,590.0469 Q812.125,590.2969 812.125,590.6406 Q812.125,590.9844 811.7813,591.3906 Q811.2813,591.9688 810.4844,592.2969 Q809.4063,592.75 808.1094,592.75 Q806.5938,592.75 805.3906,592.125 Q804.4063,591.625 803.7188,590.5625 Q803.0313,589.4844 803.0313,588.2031 L803.0313,587.0469 Q803.0313,585.7188 803.6406,584.5781 Q804.2656,583.4219 805.3594,582.8125 Q806.4531,582.1875 807.6875,582.1875 Q808.4219,582.1875 809.0625,582.3594 Q809.7188,582.5156 810.2656,582.875 Z " fill="#000000"/><text fill="#000000" font-family="sans-serif" font-size="12" lengthAdjust="spacing" textLength="119" x="821.5" y="591.9102">WorkoutDayFragment</text><line style="stroke:#A80036;stroke-width:1.5;" x1="793.5" x2="942.5" y1="603" y2="603"/><line style="stroke:#A80036;stroke-width:1.5;" x1="793.5" x2="942.5" y1="611" y2="611"/><!--MD5=[75f4e10e4e6e8f03fa37c0ee557199e2]
class WorkoutDayViewModel--><rect codeLine="42" fill="#FEFECE" filter="url(#f1uwkfrxt4tbrq)" height="48" id="WorkoutDayViewModel" style="stroke:#A80036;stroke-width:1.5;" width="157" x="542.5" y="612"/><ellipse cx="557.5" cy="628" fill="#ADD1B2" rx="11" ry="11" style="stroke:#A80036;stroke-width:1.0;"/><path d="M560.2656,623.875 Q560.4219,623.6563 560.6094,623.5469 Q560.7969,623.4375 561.0156,623.4375 Q561.3906,623.4375 561.625,623.7031 Q561.8594,623.9531 561.8594,624.5625 L561.8594,626.0156 Q561.8594,626.625 561.625,626.8906 Q561.3906,627.1563 561.0156,627.1563 Q560.6719,627.1563 560.4688,626.9531 Q560.2656,626.7656 560.1563,626.25 Q560.1094,625.8906 559.9219,625.7031 Q559.5938,625.3281 558.9844,625.1094 Q558.375,624.8906 557.75,624.8906 Q556.9844,624.8906 556.3438,625.2188 Q555.7188,625.5469 555.2188,626.2969 Q554.7344,627.0469 554.7344,628.0781 L554.7344,629.1719 Q554.7344,630.4063 555.625,631.2344 Q556.5156,632.0469 558.1094,632.0469 Q559.0469,632.0469 559.7031,631.7969 Q560.0938,631.6406 560.5156,631.2031 Q560.7813,630.9375 560.9219,630.8594 Q561.0781,630.7813 561.2813,630.7813 Q561.6094,630.7813 561.8594,631.0469 Q562.125,631.2969 562.125,631.6406 Q562.125,631.9844 561.7813,632.3906 Q561.2813,632.9688 560.4844,633.2969 Q559.4063,633.75 558.1094,633.75 Q556.5938,633.75 555.3906,633.125 Q554.4063,632.625 553.7188,631.5625 Q553.0313,630.4844 553.0313,629.2031 L553.0313,628.0469 Q553.0313,626.7188 553.6406,625.5781 Q554.2656,624.4219 555.3594,623.8125 Q556.4531,623.1875 557.6875,623.1875 Q558.4219,623.1875 559.0625,623.3594 Q559.7188,623.5156 560.2656,623.875 Z " fill="#000000"/><text fill="#000000" font-family="sans-serif" font-size="12" lengthAdjust="spacing" textLength="125" x="571.5" y="632.9102">WorkoutDayViewModel</text><line style="stroke:#A80036;stroke-width:1.5;" x1="543.5" x2="698.5" y1="644" y2="644"/><line style="stroke:#A80036;stroke-width:1.5;" x1="543.5" x2="698.5" y1="652" y2="652"/><!--MD5=[94f01c375032f0313a406f305bbed4a6]
reverse link ExerciseDetector to SquatExerciseDetector--><path codeLine="49" d="M950.69,1009 C971.48,1009 993.75,1009 1014.33,1009 " fill="none" id="ExerciseDetector-backto-SquatExerciseDetector" style="stroke:#A80036;stroke-width:1.0;"/><polygon fill="none" points="950.53,1016,930.53,1009,950.53,1002,950.53,1016" style="stroke:#A80036;stroke-width:1.0;"/><!--MD5=[e8834b4cd1b8068800e9fa56e17216c4]
reverse link ExercisePoseConstraint to ExerciseAngleConstraint--><path codeLine="50" d="M969.96,1092 C983.14,1092 996.52,1092 1009.36,1092 " fill="none" id="ExercisePoseConstraint-backto-ExerciseAngleConstraint" style="stroke:#A80036;stroke-width:1.0;"/><polygon fill="none" points="969.51,1099,949.51,1092,969.51,1085,969.51,1099" style="stroke:#A80036;stroke-width:1.0;"/><!--MD5=[020d9336ff7a36a685b78d105f077555]
reverse link ExercisePoseConstraints to ExercisePoseConstraint--><path codeLine="51" d="M712.77,1037.06 C725.96,1041.3 739.35,1045.7 752,1050 C768.5,1055.61 786.23,1061.94 802.71,1067.95 " fill="none" id="ExercisePoseConstraints-backto-ExercisePoseConstraint" style="stroke:#A80036;stroke-width:1.0;"/><polygon fill="#FFFFFF" points="700.21,1033.04,704.7062,1038.6778,711.6395,1036.6959,707.1434,1031.0581,700.21,1033.04" style="stroke:#A80036;stroke-width:1.0;"/><!--MD5=[28281cdcf17765f7268101b2b170223b]
reverse link ExerciseCameraFragment to ExerciseDetector--><path codeLine="52" d="M681.34,915.03 C723.64,936.44 779.76,964.84 819.19,984.8 " fill="none" id="ExerciseCameraFragment-backto-ExerciseDetector" style="stroke:#A80036;stroke-width:1.0;"/><polygon fill="#FFFFFF" points="669.53,909.06,673.0769,915.3385,680.2366,914.4792,676.6897,908.2007,669.53,909.06" style="stroke:#A80036;stroke-width:1.0;"/><!--MD5=[7640d20a9140918d80f163421c8d648d]
reverse link ExercisePoseConstraint to SquatExerciseDetector--><path codeLine="53" d="M953.99,1063.56 C966.6,1059.14 979.42,1054.53 991.5,1050 C1005.53,1044.74 1020.53,1038.79 1034.56,1033.09 " fill="none" id="ExercisePoseConstraint-backto-SquatExerciseDetector" style="stroke:#A80036;stroke-width:1.0;"/><polygon fill="#FFFFFF" points="941.47,1067.92,948.4515,1069.7253,952.8031,1063.9752,945.8216,1062.1699,941.47,1067.92" style="stroke:#A80036;stroke-width:1.0;"/><!--MD5=[fe147a0e0bdef2c3e8b11b4f5bdcd46a]
reverse link CalenderRepository to TestCalenderRepository--><path codeLine="56" d="M475.57,154 C496.08,154 517.78,154 537.94,154 " fill="none" id="CalenderRepository-backto-TestCalenderRepository" style="stroke:#A80036;stroke-width:1.0;"/><polygon fill="none" points="475.54,161,455.54,154,475.54,147,475.54,161" style="stroke:#A80036;stroke-width:1.0;"/><!--MD5=[2c92776a9de92f6a808ec5e4e39234f4]
reverse link PlannedWorkoutSession to CalenderRepository--><path codeLine="57" d="M262.18,154 C279.34,154 296.92,154 313.17,154 " fill="none" id="PlannedWorkoutSession-backto-CalenderRepository" style="stroke:#A80036;stroke-width:1.0;"/><polygon fill="#FFFFFF" points="249.16,154,255.16,158,261.16,154,255.16,150,249.16,154" style="stroke:#A80036;stroke-width:1.0;"/><!--MD5=[3272993b63446f068b34f145762b6516]
reverse link CalenderRepository to WorkoutDayViewModel--><path codeLine="58" d="M457.29,190.05 C476.39,263.16 441.1,560.37 467.5,594 C485.39,616.79 514.44,627.93 542.4,633.15 " fill="none" id="CalenderRepository-backto-WorkoutDayViewModel" style="stroke:#A80036;stroke-width:1.0;"/><polygon fill="#FFFFFF" points="452.34,178.02,450.9237,185.0906,456.9057,189.1175,458.322,182.0469,452.34,178.02" style="stroke:#A80036;stroke-width:1.0;"/><!--MD5=[48bb6aa8b116d0a9b3d124dae5f86982]
reverse link CalenderRepository to CalenderFragment--><path codeLine="59" d="M459.44,186.51 C462.41,189.87 463.63,192.39 467.5,195 C481.97,204.76 691.18,281.82 800.91,321.92 " fill="none" id="CalenderRepository-backto-CalenderFragment" style="stroke:#A80036;stroke-width:1.0;"/><polygon fill="#FFFFFF" points="449.48,178.14,451.4984,185.0629,458.6651,185.8623,456.6466,178.9395,449.48,178.14" style="stroke:#A80036;stroke-width:1.0;"/><!--MD5=[fe337455419582bde6435381b3422a6a]
reverse link WorkoutDayViewModel to WorkoutDayFragment--><path codeLine="60" d="M712.64,620.83 C738.92,616.43 767.32,611.68 792.49,607.47 " fill="none" id="WorkoutDayViewModel-backto-WorkoutDayFragment" style="stroke:#A80036;stroke-width:1.0;"/><polygon fill="#FFFFFF" points="699.52,623.03,706.097,625.9868,711.356,621.0529,704.779,618.0961,699.52,623.03" style="stroke:#A80036;stroke-width:1.0;"/><!--MD5=[f0b9e683933ffec02e44440072f5071a]
reverse link PlannedWorkoutSessionAdapter to WorkoutDayFragment--><path codeLine="61" d="M739.64,573.17 C757.59,576.24 775.68,579.34 792.36,582.2 " fill="none" id="PlannedWorkoutSessionAdapter-backto-WorkoutDayFragment" style="stroke:#A80036;stroke-width:1.0;"/><polygon fill="#FFFFFF" points="726.61,570.93,731.8511,575.8829,738.4388,572.9499,733.1977,567.997,726.61,570.93" style="stroke:#A80036;stroke-width:1.0;"/><!--MD5=[639fce2da7d1fab3e0c6e81f7f572076]
reverse link TrainingNotificationService to MyApp--><path codeLine="62" d="M266.54,985 C297.07,985 328.43,985 350.98,985 " fill="none" id="TrainingNotificationService-backto-MyApp" style="stroke:#A80036;stroke-width:1.0;"/><polygon fill="#FFFFFF" points="253.54,985,259.54,989,265.54,985,259.54,981,253.54,985" style="stroke:#A80036;stroke-width:1.0;"/><!--MD5=[69e88bb5b8eca1c643983d7df484f161]
reverse link DayViewContainer to CalenderFragment--><path codeLine="63" d="M701.01,346 C732.9,346 769.31,346 799.88,346 " fill="none" id="DayViewContainer-backto-CalenderFragment" style="stroke:#A80036;stroke-width:1.0;"/><polygon fill="#FFFFFF" points="687.66,346,693.66,350,699.66,346,693.66,342,687.66,346" style="stroke:#A80036;stroke-width:1.0;"/><!--MD5=[4aa5031e480cca85c11893092a03fd73]
reverse link MonthViewContainer to CalenderFragment--><path codeLine="64" d="M706.3,402.17 C721.54,397.21 737.26,392.01 752,387 C767.75,381.65 784.66,375.72 800.53,370.08 " fill="none" id="MonthViewContainer-backto-CalenderFragment" style="stroke:#A80036;stroke-width:1.0;"/><polygon fill="#FFFFFF" points="693.65,406.28,700.5923,408.2305,705.0629,402.5725,698.1206,400.6219,693.65,406.28" style="stroke:#A80036;stroke-width:1.0;"/><!--MD5=[81f2ffb58d1ea6af208b2dfbe60ae31e]
link HomeFragment to NotficiationsFragment--><!--MD5=[33ae67074c1c78760314a0e03944bea1]
link HomeFragment to ProfileFragment--><!--MD5=[7ec77b7fd1bc1fbbd75097c089dfb801]
link ProfileFragment to StatsFragment--><!--MD5=[3af3ffe2c17196152f557e8bae9c6510]
@startuml FitnessApp

left to right direction

package com.groupfive.fitness <<Folder>> {
    Class MainActivity
    Class MyApp
    Class TrainingNotificationService

    package Calender <<Folder>>{ 
        package Repository <<Folder>> { 
        Interface CalenderRepository
            Class PlannedWorkoutSession
            Class TestCalenderRepository 
        }  
    }

    package Exercise <<Folder>> {
        Class ExerciseAngleConstraint
        Interface ExerciseDetector
        Interface ExercisePoseConstraint
        Class ExercisePoseConstraints
        Class ExerciseUtils
        Class SquatExerciseDetector
        Enum WorkoutType
    }

    package Fragments <<Folder>> {
        package Calendar <<Folder>> {
        	Class CalenderFragment
        	Class DayViewContainer
        	Class MonthViewContainer
	}
        Class ExerciseCameraFragment
        Class HomeFragment
        Class NotficiationsFragment
        Class ProfileFragment
        Class StatsFragment

        package Workoutday <<Folder>> {
            Class PlannedWorkoutSessionAdapter
            Class WorkoutDayFragment
            Class WorkoutDayViewModel

        }
    }
}

' Exercise system
ExerciseDetector <|- - SquatExerciseDetector
ExercisePoseConstraint <|- - ExerciseAngleConstraint
ExercisePoseConstraints o- - ExercisePoseConstraint
ExerciseCameraFragment o- - ExerciseDetector
ExercisePoseConstraint o- - SquatExerciseDetector

' Calender
CalenderRepository <|- - TestCalenderRepository
PlannedWorkoutSession o- - CalenderRepository
CalenderRepository o- - WorkoutDayViewModel
CalenderRepository o- - CalenderFragment
WorkoutDayViewModel o- - WorkoutDayFragment
PlannedWorkoutSessionAdapter o- - WorkoutDayFragment
TrainingNotificationService o- - MyApp
DayViewContainer o- - CalenderFragment
MonthViewContainer o- - CalenderFragment
@enduml

@startuml FitnessApp

left to right direction

package com.groupfive.fitness <<Folder>> {
    Class MainActivity
    Class MyApp
    Class TrainingNotificationService

    package Calender <<Folder>>{ 
        package Repository <<Folder>> { 
        Interface CalenderRepository
            Class PlannedWorkoutSession
            Class TestCalenderRepository 
        }  
    }

    package Exercise <<Folder>> {
        Class ExerciseAngleConstraint
        Interface ExerciseDetector
        Interface ExercisePoseConstraint
        Class ExercisePoseConstraints
        Class ExerciseUtils
        Class SquatExerciseDetector
        Enum WorkoutType
    }

    package Fragments <<Folder>> {
        package Calendar <<Folder>> {
        	Class CalenderFragment
        	Class DayViewContainer
        	Class MonthViewContainer
	}
        Class ExerciseCameraFragment
        Class HomeFragment
        Class NotficiationsFragment
        Class ProfileFragment
        Class StatsFragment

        package Workoutday <<Folder>> {
            Class PlannedWorkoutSessionAdapter
            Class WorkoutDayFragment
            Class WorkoutDayViewModel

        }
    }
}

ExerciseDetector <|- - SquatExerciseDetector
ExercisePoseConstraint <|- - ExerciseAngleConstraint
ExercisePoseConstraints o- - ExercisePoseConstraint
ExerciseCameraFragment o- - ExerciseDetector
ExercisePoseConstraint o- - SquatExerciseDetector

CalenderRepository <|- - TestCalenderRepository
PlannedWorkoutSession o- - CalenderRepository
CalenderRepository o- - WorkoutDayViewModel
CalenderRepository o- - CalenderFragment
WorkoutDayViewModel o- - WorkoutDayFragment
PlannedWorkoutSessionAdapter o- - WorkoutDayFragment
TrainingNotificationService o- - MyApp
DayViewContainer o- - CalenderFragment
MonthViewContainer o- - CalenderFragment
@enduml

PlantUML version 1.2021.10(Mon Aug 30 15:43:48 CEST 2021)
(GPL source distribution)
Java Runtime: OpenJDK Runtime Environment
JVM: OpenJDK 64-Bit Server VM
Default Encoding: Cp1252
Language: en
Country: US
--></g></svg>